<svg version="1.1" xmlns="http://www.w3.org/2000/svg" xmlns:xlink="http://www.w3.org/1999/xlink" width="620" height="420"><defs><linearGradient id="cZzFxzRPfWUw" x1="0px" x2="32px" y1="0px" y2="0px" gradientUnits="userSpaceOnUse"><stop offset="0" stop-color="#08f708"/><stop offset="1" stop-color="#08f708"/></linearGradient><linearGradient id="wRBztJKlBAyx" x1="0px" x2="32px" y1="0px" y2="0px" gradientUnits="userSpaceOnUse"><stop offset="0" stop-color="#08f708"/><stop offset="1" stop-color="#10ef10"/></linearGradient><linearGradient id="ACRepgUUNxCO" x1="0px" x2="32px" y1="0px" y2="0px" gradientUnits="userSpaceOnUse"><stop offset="0" stop-color="#877878"/><stop offset="1" stop-color="#877878"/></linearGradient></defs><g><rect fill="#000000" stroke="none" x="0" y="0" width="1503" height="633"/><g transform="scale(1,1) translate(86,2)"><path fill="none" stroke="#877878" paint-order="fill stroke markers" d=" M 368 320 L 368 352" stroke-miterlimit="10" stroke-width="3" stroke-dasharray=""/><path fill="none" stroke="#877878" paint-order="fill stroke markers" d=" M 378 352 L 358 352" stroke-miterlimit="10" stroke-width="3" stroke-dasharray=""/><path fill="none" stroke="#877878" paint-order="fill stroke markers" d=" M 374 357 L 362 357" stroke-miterlimit="10" stroke-width="3" stroke-dasharray=""/><path fill="none" stroke="#877878" paint-order="fill stroke markers" d=" M 370 362 L 366 362" stroke-miterlimit="10" stroke-width="3" stroke-dasharray=""/><path fill="none" stroke="#08f708" paint-order="fill stroke markers" d=" M 240 288 L 288 288" stroke-miterlimit="10" stroke-width="3" stroke-dasharray=""/><path fill="none" stroke="#08f708" paint-order="fill stroke markers" d=" M 320 288 L 368 288" stroke-miterlimit="10" stroke-width="3" stroke-dasharray=""/><g transform="matrix(1,0,0,1,288,288)"><path fill="none" stroke="url(#cZzFxzRPfWUw)" paint-order="fill stroke markers" d=" M 0 0 L 2 6 L 6 -6 L 10 6 L 14 -6 L 18 6 L 22 -6 L 26 6 L 30 -6 L 32 0" stroke-miterlimit="10" stroke-width="3" stroke-dasharray=""/></g><text fill="#ffffff" stroke="none" font-family="sans-serif" font-size="12px" font-style="normal" font-weight="normal" text-decoration="normal" x="295" y="278" text-anchor="start" dominant-baseline="alphabetic">47k</text><path fill="none" stroke="#08f708" paint-order="fill stroke markers" d=" M 256 112 L 280 112" stroke-miterlimit="10" stroke-width="3" stroke-dasharray=""/><path fill="none" stroke="#10ef10" paint-order="fill stroke markers" d=" M 312 112 L 336 112" stroke-miterlimit="10" stroke-width="3" stroke-dasharray=""/><g transform="matrix(1,0,0,1,280,112)"><path fill="none" stroke="url(#wRBztJKlBAyx)" paint-order="fill stroke markers" d=" M 0 0 L 2 6 L 6 -6 L 10 6 L 14 -6 L 18 6 L 22 -6 L 26 6 L 30 -6 L 32 0" stroke-miterlimit="10" stroke-width="3" stroke-dasharray=""/></g><text fill="#ffffff" stroke="none" font-family="sans-serif" font-size="12px" font-style="normal" font-weight="normal" text-decoration="normal" x="287" y="102" text-anchor="start" dominant-baseline="alphabetic">12k</text><path fill="none" stroke="#877878" paint-order="fill stroke markers" d=" M 464 128 L 451 118" stroke-miterlimit="10" stroke-width="3" stroke-dasharray=""/><path fill="none" stroke="#08f708" paint-order="fill stroke markers" d=" M 464 96 L 451 106" stroke-miterlimit="10" stroke-width="3" stroke-dasharray=""/><path fill="#c0c0c0" stroke="none" paint-order="stroke fill markers" d=" M 453 107 L 461 104 L 456 98 Z"/><path fill="none" stroke="#10ef10" paint-order="fill stroke markers" d=" M 416 112 L 448 112" stroke-miterlimit="10" stroke-width="3" stroke-dasharray=""/><path fill="#10ef10" stroke="none" paint-order="stroke fill markers" d=" M 448 96 L 451 96 L 451 128 L 448 128 Z"/><path fill="none" stroke="#877878" paint-order="fill stroke markers" d=" M 464 256 L 464 240" stroke-miterlimit="10" stroke-width="3" stroke-dasharray=""/><path fill="none" stroke="#877878" paint-order="fill stroke markers" d=" M 464 208 L 464 192" stroke-miterlimit="10" stroke-width="3" stroke-dasharray=""/><g transform="matrix(0,-1,1,0,464,240)"><path fill="none" stroke="url(#ACRepgUUNxCO)" paint-order="fill stroke markers" d=" M 0 0 L 2 6 L 6 -6 L 10 6 L 14 -6 L 18 6 L 22 -6 L 26 6 L 30 -6 L 32 0" stroke-miterlimit="10" stroke-width="3" stroke-dasharray=""/></g><text fill="#ffffff" stroke="none" font-family="sans-serif" font-size="12px" font-style="normal" font-weight="normal" text-decoration="normal" x="474" y="230" text-anchor="start" dominant-baseline="alphabetic">1.7k</text><path fill="none" stroke="#877878" paint-order="fill stroke markers" d=" M 464 128 L 464 148" stroke-miterlimit="10" stroke-width="3" stroke-dasharray=""/><path fill="none" stroke="#877878" paint-order="fill stroke markers" d=" M 464 172 L 464 192" stroke-miterlimit="10" stroke-width="3" stroke-dasharray=""/><path fill="none" stroke="#808080" paint-order="fill stroke markers" d=" M 475.76 160 A 11.76 11.76 0 1 1 475.7599941200005 159.98824000195998" stroke-miterlimit="10" stroke-width="3" stroke-dasharray=""/><path fill="#000000" stroke="none" paint-order="stroke fill markers" d=" M 472 160 A 8 8 0 1 1 471.99999999988734 159.9999575425633 Z"/><path fill="none" stroke="#877878" paint-order="fill stroke markers" d=" M 464 320 L 464 352" stroke-miterlimit="10" stroke-width="3" stroke-dasharray=""/><path fill="none" stroke="#877878" paint-order="fill stroke markers" d=" M 474 352 L 454 352" stroke-miterlimit="10" stroke-width="3" stroke-dasharray=""/><path fill="none" stroke="#877878" paint-order="fill stroke markers" d=" M 470 357 L 458 357" stroke-miterlimit="10" stroke-width="3" stroke-dasharray=""/><path fill="none" stroke="#877878" paint-order="fill stroke markers" d=" M 466 362 L 462 362" stroke-miterlimit="10" stroke-width="3" stroke-dasharray=""/><path fill="none" stroke="#08f708" paint-order="fill stroke markers" d=" M 464 96 L 464 48" stroke-miterlimit="10" stroke-width="3" stroke-dasharray=""/><text fill="#ffffff" stroke="none" font-family="sans-serif" font-size="12px" font-style="normal" font-weight="normal" text-decoration="normal" x="470" y="78" text-anchor="start" dominant-baseline="alphabetic"></text><path fill="none" stroke="#08f708" paint-order="fill stroke markers" d=" M 464 48 L 336 48" stroke-miterlimit="10" stroke-width="3" stroke-dasharray=""/><text fill="#ffffff" stroke="none" font-family="sans-serif" font-size="12px" font-style="normal" font-weight="normal" text-decoration="normal" x="400" y="42" text-anchor="start" dominant-baseline="alphabetic"></text><path fill="none" stroke="#08f708" paint-order="fill stroke markers" d=" M 336 48 L 112 48" stroke-miterlimit="10" stroke-width="3" stroke-dasharray=""/><text fill="#ffffff" stroke="none" font-family="sans-serif" font-size="12px" font-style="normal" font-weight="normal" text-decoration="normal" x="224" y="42" text-anchor="start" dominant-baseline="alphabetic"></text><path fill="none" stroke="#08f708" paint-order="fill stroke markers" d=" M 32 192 L 1 192" stroke-miterlimit="10" stroke-width="3" stroke-dasharray=""/><path fill="none" stroke="#808080" paint-order="fill stroke markers" d=" M 0.6600000000000001 192 A 16.66 16.66 0 1 1 0.6599916700006929 191.98334000277666" stroke-miterlimit="10" stroke-width="3" stroke-dasharray=""/><path fill="none" stroke="#808080" paint-order="fill stroke markers" d=" M -24 184 L -24 192" stroke-miterlimit="10" stroke-width="3" stroke-dasharray=""/><path fill="none" stroke="#808080" paint-order="fill stroke markers" d=" M -24 184 L -16 184" stroke-miterlimit="10" stroke-width="3" stroke-dasharray=""/><path fill="none" stroke="#808080" paint-order="fill stroke markers" d=" M -16 184 L -16 200" stroke-miterlimit="10" stroke-width="3" stroke-dasharray=""/><path fill="none" stroke="#808080" paint-order="fill stroke markers" d=" M -8 200 L -16 200" stroke-miterlimit="10" stroke-width="3" stroke-dasharray=""/><path fill="none" stroke="#808080" paint-order="fill stroke markers" d=" M -8 192 L -8 200" stroke-miterlimit="10" stroke-width="3" stroke-dasharray=""/><text fill="#ffffff" stroke="none" font-family="sans-serif" font-size="12px" font-style="normal" font-weight="normal" text-decoration="normal" x="-31" y="173" text-anchor="start" dominant-baseline="alphabetic">9.1Hz</text><path fill="none" stroke="#10ef10" paint-order="fill stroke markers" d=" M 416 112 L 336 112" stroke-miterlimit="10" stroke-width="3" stroke-dasharray=""/><text fill="#ffffff" stroke="none" font-family="sans-serif" font-size="12px" font-style="normal" font-weight="normal" text-decoration="normal" x="376" y="106" text-anchor="start" dominant-baseline="alphabetic"></text><path fill="none" stroke="#08f708" paint-order="fill stroke markers" d=" M 112 48 L 81 48" stroke-miterlimit="10" stroke-width="3" stroke-dasharray=""/><g><text fill="#ffffff" stroke="none" font-family="sans-serif" font-size="12px" font-style="normal" font-weight="normal" text-decoration="normal" x="56" y="48" text-anchor="start" dominant-baseline="central">+5V</text></g><path fill="none" stroke="#08f708" paint-order="fill stroke markers" d=" M 208 192 L 176 192" stroke-miterlimit="10" stroke-width="3" stroke-dasharray=""/><path fill="none" stroke="#877878" paint-order="fill stroke markers" d=" M 144 208 L 112 208" stroke-miterlimit="10" stroke-width="3" stroke-dasharray=""/><path fill="none" stroke="#08f708" paint-order="fill stroke markers" d=" M 144 176 L 112 176" stroke-miterlimit="10" stroke-width="3" stroke-dasharray=""/><path fill="none" stroke="#ffffff" paint-order="fill stroke markers" d=" M 176 192 L 144 176" stroke-miterlimit="10" stroke-width="3" stroke-dasharray=""/><path fill="none" stroke="#877878" paint-order="fill stroke markers" d=" M 112 208 L 112 256" stroke-miterlimit="10" stroke-width="3" stroke-dasharray=""/><text fill="#ffffff" stroke="none" font-family="sans-serif" font-size="12px" font-style="normal" font-weight="normal" text-decoration="normal" x="118" y="238" text-anchor="start" dominant-baseline="alphabetic"></text><path fill="none" stroke="#877878" paint-order="fill stroke markers" d=" M 112 256 L 112 288" stroke-miterlimit="10" stroke-width="3" stroke-dasharray=""/><path fill="none" stroke="#877878" paint-order="fill stroke markers" d=" M 122 288 L 102 288" stroke-miterlimit="10" stroke-width="3" stroke-dasharray=""/><path fill="none" stroke="#877878" paint-order="fill stroke markers" d=" M 118 293 L 106 293" stroke-miterlimit="10" stroke-width="3" stroke-dasharray=""/><path fill="none" stroke="#877878" paint-order="fill stroke markers" d=" M 114 298 L 110 298" stroke-miterlimit="10" stroke-width="3" stroke-dasharray=""/><path fill="none" stroke="#08f708" paint-order="fill stroke markers" d=" M 256 112 L 208 112" stroke-miterlimit="10" stroke-width="3" stroke-dasharray=""/><text fill="#ffffff" stroke="none" font-family="sans-serif" font-size="12px" font-style="normal" font-weight="normal" text-decoration="normal" x="232" y="106" text-anchor="start" dominant-baseline="alphabetic"></text><path fill="none" stroke="#08f708" paint-order="fill stroke markers" d=" M 208 112 L 208 192" stroke-miterlimit="10" stroke-width="3" stroke-dasharray=""/><text fill="#ffffff" stroke="none" font-family="sans-serif" font-size="12px" font-style="normal" font-weight="normal" text-decoration="normal" x="214" y="158" text-anchor="start" dominant-baseline="alphabetic"></text><path fill="none" stroke="#877878" paint-order="fill stroke markers" d=" M 464 288 L 451 298" stroke-miterlimit="10" stroke-width="3" stroke-dasharray=""/><path fill="none" stroke="#877878" paint-order="fill stroke markers" d=" M 464 293 L 451 303" stroke-miterlimit="10" stroke-width="3" stroke-dasharray=""/><path fill="none" stroke="#877878" paint-order="fill stroke markers" d=" M 464 288 L 464 293" stroke-miterlimit="10" stroke-width="3" stroke-dasharray=""/><path fill="none" stroke="#877878" paint-order="fill stroke markers" d=" M 464 320 L 451 310" stroke-miterlimit="10" stroke-width="3" stroke-dasharray=""/><path fill="#c0c0c0" stroke="none" paint-order="stroke fill markers" d=" M 464 320 L 460 312 L 455 318 Z"/><path fill="none" stroke="#877878" paint-order="fill stroke markers" d=" M 416 304 L 448 304" stroke-miterlimit="10" stroke-width="3" stroke-dasharray=""/><path fill="#877878" stroke="none" paint-order="stroke fill markers" d=" M 448 288 L 451 288 L 451 320 L 448 320 Z"/><path fill="none" stroke="#877878" paint-order="fill stroke markers" d=" M 464 256 L 464 288" stroke-miterlimit="10" stroke-width="3" stroke-dasharray=""/><text fill="#ffffff" stroke="none" font-family="sans-serif" font-size="12px" font-style="normal" font-weight="normal" text-decoration="normal" x="470" y="278" text-anchor="start" dominant-baseline="alphabetic"></text><path fill="none" stroke="#877878" paint-order="fill stroke markers" d=" M 416 304 L 408 304" stroke-miterlimit="10" stroke-width="3" stroke-dasharray=""/><path fill="none" stroke="#877878" paint-order="fill stroke markers" d=" M 376 320 L 368 320" stroke-miterlimit="10" stroke-width="3" stroke-dasharray=""/><path fill="none" stroke="#08f708" paint-order="fill stroke markers" d=" M 376 288 L 368 288" stroke-miterlimit="10" stroke-width="3" stroke-dasharray=""/><path fill="none" stroke="#ffffff" paint-order="fill stroke markers" d=" M 408 304 L 376 320" stroke-miterlimit="10" stroke-width="3" stroke-dasharray=""/><path fill="none" stroke="#08f708" paint-order="fill stroke markers" d=" M 112 48 L 112 96" stroke-miterlimit="10" stroke-width="3" stroke-dasharray=""/><text fill="#ffffff" stroke="none" font-family="sans-serif" font-size="12px" font-style="normal" font-weight="normal" text-decoration="normal" x="118" y="78" text-anchor="start" dominant-baseline="alphabetic"></text><path fill="none" stroke="#08f708" paint-order="fill stroke markers" d=" M 112 96 L 112 176" stroke-miterlimit="10" stroke-width="3" stroke-dasharray=""/><text fill="#ffffff" stroke="none" font-family="sans-serif" font-size="12px" font-style="normal" font-weight="normal" text-decoration="normal" x="118" y="142" text-anchor="start" dominant-baseline="alphabetic"></text><path fill="none" stroke="#08f708" paint-order="fill stroke markers" d=" M 240 288 L 240 368" stroke-miterlimit="10" stroke-width="3" stroke-dasharray=""/><text fill="#ffffff" stroke="none" font-family="sans-serif" font-size="12px" font-style="normal" font-weight="normal" text-decoration="normal" x="246" y="334" text-anchor="start" dominant-baseline="alphabetic"></text><path fill="none" stroke="#08f708" paint-order="fill stroke markers" d=" M 240 368 L 48 368" stroke-miterlimit="10" stroke-width="3" stroke-dasharray=""/><text fill="#ffffff" stroke="none" font-family="sans-serif" font-size="12px" font-style="normal" font-weight="normal" text-decoration="normal" x="144" y="362" text-anchor="start" dominant-baseline="alphabetic"></text><path fill="none" stroke="#08f708" paint-order="fill stroke markers" d=" M 48 368 L 48 96" stroke-miterlimit="10" stroke-width="3" stroke-dasharray=""/><text fill="#ffffff" stroke="none" font-family="sans-serif" font-size="12px" font-style="normal" font-weight="normal" text-decoration="normal" x="54" y="238" text-anchor="start" dominant-baseline="alphabetic"></text><path fill="none" stroke="#08f708" paint-order="fill stroke markers" d=" M 48 96 L 112 96" stroke-miterlimit="10" stroke-width="3" stroke-dasharray=""/><text fill="#ffffff" stroke="none" font-family="sans-serif" font-size="12px" font-style="normal" font-weight="normal" text-decoration="normal" x="80" y="90" text-anchor="start" dominant-baseline="alphabetic"></text><path fill="#ffffff" stroke="none" paint-order="stroke fill markers" d=" M 35 192 A 3 3 0 1 1 34.99999999995775 191.99998407846124 Z"/><path fill="#ffffff" stroke="none" paint-order="stroke fill markers" d=" M 115 48 A 3 3 0 1 1 114.99999999995775 47.99998407846124 Z"/><path fill="#ffffff" stroke="none" paint-order="stroke fill markers" d=" M 115 96 A 3 3 0 1 1 114.99999999995775 95.99998407846124 Z"/></g></g></svg>