<svg version="1.1" xmlns="http://www.w3.org/2000/svg" xmlns:xlink="http://www.w3.org/1999/xlink" width="620" height="340"><defs><linearGradient id="MwJroFMCnrKO" x1="0px" x2="32px" y1="0px" y2="0px" gradientUnits="userSpaceOnUse"><stop offset="0" stop-color="#877878"/><stop offset="1" stop-color="#18e718"/></linearGradient><linearGradient id="WZzhWwbyyAyQ" x1="0px" x2="32px" y1="0px" y2="0px" gradientUnits="userSpaceOnUse"><stop offset="0" stop-color="#18e718"/><stop offset="1" stop-color="#08f708"/></linearGradient><linearGradient id="FgnNkTUrsMcZ" x1="0px" x2="32px" y1="0px" y2="0px" gradientUnits="userSpaceOnUse"><stop offset="0" stop-color="#877878"/><stop offset="1" stop-color="#38c738"/></linearGradient><linearGradient id="cXigrmNNstMM" x1="0px" x2="32px" y1="0px" y2="0px" gradientUnits="userSpaceOnUse"><stop offset="0" stop-color="#08f708"/><stop offset="1" stop-color="#788778"/></linearGradient></defs><g><rect fill="#000000" stroke="none" x="0" y="0" width="1113" height="770"/><g transform="scale(1,1) translate(134,-46)"><path fill="none" stroke="#877878" paint-order="fill stroke markers" d=" M 288 224 L 275 234" stroke-miterlimit="10" stroke-width="3" stroke-dasharray=""/><path fill="none" stroke="#877878" paint-order="fill stroke markers" d=" M 288 256 L 275 246" stroke-miterlimit="10" stroke-width="3" stroke-dasharray=""/><path fill="#c0c0c0" stroke="none" paint-order="stroke fill markers" d=" M 288 256 L 284 248 L 279 254 Z"/><path fill="none" stroke="#788778" paint-order="fill stroke markers" d=" M 224 240 L 272 240" stroke-miterlimit="10" stroke-width="3" stroke-dasharray=""/><path fill="#788778" stroke="none" paint-order="stroke fill markers" d=" M 272 224 L 275 224 L 275 256 L 272 256 Z"/><path fill="none" stroke="#877878" paint-order="fill stroke markers" d=" M 288 256 L 288 336" stroke-miterlimit="10" stroke-width="3" stroke-dasharray=""/><path fill="none" stroke="#877878" paint-order="fill stroke markers" d=" M 298 336 L 278 336" stroke-miterlimit="10" stroke-width="3" stroke-dasharray=""/><path fill="none" stroke="#877878" paint-order="fill stroke markers" d=" M 294 341 L 282 341" stroke-miterlimit="10" stroke-width="3" stroke-dasharray=""/><path fill="none" stroke="#877878" paint-order="fill stroke markers" d=" M 290 346 L 286 346" stroke-miterlimit="10" stroke-width="3" stroke-dasharray=""/><path fill="none" stroke="#877878" paint-order="fill stroke markers" d=" M 288 224 L 288 208" stroke-miterlimit="10" stroke-width="3" stroke-dasharray=""/><path fill="none" stroke="#18e718" paint-order="fill stroke markers" d=" M 288 176 L 288 160" stroke-miterlimit="10" stroke-width="3" stroke-dasharray=""/><g transform="matrix(0,-1,1,0,288,208)"><path fill="none" stroke="url(#MwJroFMCnrKO)" paint-order="fill stroke markers" d=" M 0 0 L 2 6 L 6 -6 L 10 6 L 14 -6 L 18 6 L 22 -6 L 26 6 L 30 -6 L 32 0" stroke-miterlimit="10" stroke-width="3" stroke-dasharray=""/></g><text fill="#ffffff" stroke="none" font-family="sans-serif" font-size="12px" font-style="normal" font-weight="normal" text-decoration="normal" x="298" y="198" text-anchor="start" dominant-baseline="alphabetic">57k</text><path fill="none" stroke="#18e718" paint-order="fill stroke markers" d=" M 288 160 L 288 144" stroke-miterlimit="10" stroke-width="3" stroke-dasharray=""/><path fill="none" stroke="#08f708" paint-order="fill stroke markers" d=" M 288 112 L 288 96" stroke-miterlimit="10" stroke-width="3" stroke-dasharray=""/><g transform="matrix(0,-1,1,0,288,144)"><path fill="none" stroke="url(#WZzhWwbyyAyQ)" paint-order="fill stroke markers" d=" M 0 0 L 2 6 L 6 -6 L 10 6 L 14 -6 L 18 6 L 22 -6 L 26 6 L 30 -6 L 32 0" stroke-miterlimit="10" stroke-width="3" stroke-dasharray=""/></g><text fill="#ffffff" stroke="none" font-family="sans-serif" font-size="12px" font-style="normal" font-weight="normal" text-decoration="normal" x="298" y="134" text-anchor="start" dominant-baseline="alphabetic">100k</text><path fill="none" stroke="#10ef10" paint-order="fill stroke markers" d=" M 416 176 L 403 166" stroke-miterlimit="10" stroke-width="3" stroke-dasharray=""/><path fill="none" stroke="#08f708" paint-order="fill stroke markers" d=" M 416 144 L 403 154" stroke-miterlimit="10" stroke-width="3" stroke-dasharray=""/><path fill="#c0c0c0" stroke="none" paint-order="stroke fill markers" d=" M 405 155 L 413 152 L 408 146 Z"/><path fill="none" stroke="#18e718" paint-order="fill stroke markers" d=" M 368 160 L 400 160" stroke-miterlimit="10" stroke-width="3" stroke-dasharray=""/><path fill="#18e718" stroke="none" paint-order="stroke fill markers" d=" M 400 144 L 403 144 L 403 176 L 400 176 Z"/><path fill="none" stroke="#877878" paint-order="fill stroke markers" d=" M 416 304 L 416 288" stroke-miterlimit="10" stroke-width="3" stroke-dasharray=""/><path fill="none" stroke="#38c738" paint-order="fill stroke markers" d=" M 416 256 L 416 240" stroke-miterlimit="10" stroke-width="3" stroke-dasharray=""/><g transform="matrix(0,-1,1,0,416,288)"><path fill="none" stroke="url(#FgnNkTUrsMcZ)" paint-order="fill stroke markers" d=" M 0 0 L 2 6 L 6 -6 L 10 6 L 14 -6 L 18 6 L 22 -6 L 26 6 L 30 -6 L 32 0" stroke-miterlimit="10" stroke-width="3" stroke-dasharray=""/></g><text fill="#ffffff" stroke="none" font-family="sans-serif" font-size="12px" font-style="normal" font-weight="normal" text-decoration="normal" x="426" y="278" text-anchor="start" dominant-baseline="alphabetic">2.2k</text><path fill="none" stroke="#10ef10" paint-order="fill stroke markers" d=" M 416 176 L 416 196" stroke-miterlimit="10" stroke-width="3" stroke-dasharray=""/><path fill="none" stroke="#38c738" paint-order="fill stroke markers" d=" M 416 220 L 416 240" stroke-miterlimit="10" stroke-width="3" stroke-dasharray=""/><path fill="none" stroke="#808080" paint-order="fill stroke markers" d=" M 427.76 208 A 11.76 11.76 0 1 1 427.7599941200005 207.98824000195998" stroke-miterlimit="10" stroke-width="3" stroke-dasharray=""/><path fill="#9e0000" stroke="none" paint-order="stroke fill markers" d=" M 424 208 A 8 8 0 1 1 423.99999999988734 207.9999575425633 Z"/><path fill="none" stroke="#877878" paint-order="fill stroke markers" d=" M 416 304 L 416 336" stroke-miterlimit="10" stroke-width="3" stroke-dasharray=""/><path fill="none" stroke="#877878" paint-order="fill stroke markers" d=" M 426 336 L 406 336" stroke-miterlimit="10" stroke-width="3" stroke-dasharray=""/><path fill="none" stroke="#877878" paint-order="fill stroke markers" d=" M 422 341 L 410 341" stroke-miterlimit="10" stroke-width="3" stroke-dasharray=""/><path fill="none" stroke="#877878" paint-order="fill stroke markers" d=" M 418 346 L 414 346" stroke-miterlimit="10" stroke-width="3" stroke-dasharray=""/><path fill="none" stroke="#08f708" paint-order="fill stroke markers" d=" M 160 240 L 176 240" stroke-miterlimit="10" stroke-width="3" stroke-dasharray=""/><path fill="none" stroke="#788778" paint-order="fill stroke markers" d=" M 208 240 L 224 240" stroke-miterlimit="10" stroke-width="3" stroke-dasharray=""/><g transform="matrix(1,0,0,1,176,240)"><path fill="none" stroke="url(#cXigrmNNstMM)" paint-order="fill stroke markers" d=" M 0 0 L 2 6 L 6 -6 L 10 6 L 14 -6 L 18 6 L 22 -6 L 26 6 L 30 -6 L 32 0" stroke-miterlimit="10" stroke-width="3" stroke-dasharray=""/></g><text fill="#ffffff" stroke="none" font-family="sans-serif" font-size="12px" font-style="normal" font-weight="normal" text-decoration="normal" x="179" y="230" text-anchor="start" dominant-baseline="alphabetic">999k</text><path fill="none" stroke="#08f708" paint-order="fill stroke markers" d=" M 416 144 L 416 96" stroke-miterlimit="10" stroke-width="3" stroke-dasharray=""/><text fill="#ffffff" stroke="none" font-family="sans-serif" font-size="12px" font-style="normal" font-weight="normal" text-decoration="normal" x="422" y="126" text-anchor="start" dominant-baseline="alphabetic"></text><path fill="none" stroke="#08f708" paint-order="fill stroke markers" d=" M 416 96 L 288 96" stroke-miterlimit="10" stroke-width="3" stroke-dasharray=""/><text fill="#ffffff" stroke="none" font-family="sans-serif" font-size="12px" font-style="normal" font-weight="normal" text-decoration="normal" x="352" y="90" text-anchor="start" dominant-baseline="alphabetic"></text><path fill="none" stroke="#08f708" paint-order="fill stroke markers" d=" M 288 96 L 64 96" stroke-miterlimit="10" stroke-width="3" stroke-dasharray=""/><text fill="#ffffff" stroke="none" font-family="sans-serif" font-size="12px" font-style="normal" font-weight="normal" text-decoration="normal" x="176" y="90" text-anchor="start" dominant-baseline="alphabetic"></text><path fill="none" stroke="#ff0000" paint-order="fill stroke markers" d=" M -16 240 L -47 240" stroke-miterlimit="10" stroke-width="3" stroke-dasharray=""/><path fill="none" stroke="#808080" paint-order="fill stroke markers" d=" M -47.34 240 A 16.66 16.66 0 1 1 -47.34000832999931 239.98334000277666" stroke-miterlimit="10" stroke-width="3" stroke-dasharray=""/><path fill="none" stroke="#808080" paint-order="fill stroke markers" d=" M -72 232 L -72 240" stroke-miterlimit="10" stroke-width="3" stroke-dasharray=""/><path fill="none" stroke="#808080" paint-order="fill stroke markers" d=" M -72 232 L -64 232" stroke-miterlimit="10" stroke-width="3" stroke-dasharray=""/><path fill="none" stroke="#808080" paint-order="fill stroke markers" d=" M -64 232 L -64 248" stroke-miterlimit="10" stroke-width="3" stroke-dasharray=""/><path fill="none" stroke="#808080" paint-order="fill stroke markers" d=" M -56 248 L -64 248" stroke-miterlimit="10" stroke-width="3" stroke-dasharray=""/><path fill="none" stroke="#808080" paint-order="fill stroke markers" d=" M -56 240 L -56 248" stroke-miterlimit="10" stroke-width="3" stroke-dasharray=""/><text fill="#ffffff" stroke="none" font-family="sans-serif" font-size="12px" font-style="normal" font-weight="normal" text-decoration="normal" x="-79" y="221" text-anchor="start" dominant-baseline="alphabetic">9.1Hz</text><path fill="none" stroke="#18e718" paint-order="fill stroke markers" d=" M 368 160 L 288 160" stroke-miterlimit="10" stroke-width="3" stroke-dasharray=""/><text fill="#ffffff" stroke="none" font-family="sans-serif" font-size="12px" font-style="normal" font-weight="normal" text-decoration="normal" x="328" y="154" text-anchor="start" dominant-baseline="alphabetic"></text><path fill="none" stroke="#08f708" paint-order="fill stroke markers" d=" M 64 96 L 33 96" stroke-miterlimit="10" stroke-width="3" stroke-dasharray=""/><g><text fill="#ffffff" stroke="none" font-family="sans-serif" font-size="12px" font-style="normal" font-weight="normal" text-decoration="normal" x="8" y="96" text-anchor="start" dominant-baseline="central">+5V</text></g><path fill="none" stroke="#08f708" paint-order="fill stroke markers" d=" M 160 240 L 128 240" stroke-miterlimit="10" stroke-width="3" stroke-dasharray=""/><path fill="none" stroke="#877878" paint-order="fill stroke markers" d=" M 96 256 L 64 256" stroke-miterlimit="10" stroke-width="3" stroke-dasharray=""/><path fill="none" stroke="#08f708" paint-order="fill stroke markers" d=" M 96 224 L 64 224" stroke-miterlimit="10" stroke-width="3" stroke-dasharray=""/><path fill="none" stroke="#ffffff" paint-order="fill stroke markers" d=" M 128 240 L 96 224" stroke-miterlimit="10" stroke-width="3" stroke-dasharray=""/><path fill="none" stroke="#08f708" paint-order="fill stroke markers" d=" M 64 96 L 64 224" stroke-miterlimit="10" stroke-width="3" stroke-dasharray=""/><text fill="#ffffff" stroke="none" font-family="sans-serif" font-size="12px" font-style="normal" font-weight="normal" text-decoration="normal" x="70" y="166" text-anchor="start" dominant-baseline="alphabetic"></text><path fill="none" stroke="#877878" paint-order="fill stroke markers" d=" M 64 256 L 64 304" stroke-miterlimit="10" stroke-width="3" stroke-dasharray=""/><text fill="#ffffff" stroke="none" font-family="sans-serif" font-size="12px" font-style="normal" font-weight="normal" text-decoration="normal" x="70" y="286" text-anchor="start" dominant-baseline="alphabetic"></text><path fill="none" stroke="#877878" paint-order="fill stroke markers" d=" M 64 304 L 64 336" stroke-miterlimit="10" stroke-width="3" stroke-dasharray=""/><path fill="none" stroke="#877878" paint-order="fill stroke markers" d=" M 74 336 L 54 336" stroke-miterlimit="10" stroke-width="3" stroke-dasharray=""/><path fill="none" stroke="#877878" paint-order="fill stroke markers" d=" M 70 341 L 58 341" stroke-miterlimit="10" stroke-width="3" stroke-dasharray=""/><path fill="none" stroke="#877878" paint-order="fill stroke markers" d=" M 66 346 L 62 346" stroke-miterlimit="10" stroke-width="3" stroke-dasharray=""/><path fill="#ffffff" stroke="none" paint-order="stroke fill markers" d=" M -13 240 A 3 3 0 1 1 -13.000000000042249 239.99998407846124 Z"/><path fill="#ffffff" stroke="none" paint-order="stroke fill markers" d=" M 67 96 A 3 3 0 1 1 66.99999999995775 95.99998407846124 Z"/><path fill="#ffffff" stroke="none" paint-order="stroke fill markers" d=" M 291 96 A 3 3 0 1 1 290.99999999995777 95.99998407846124 Z"/><path fill="#ffffff" stroke="none" paint-order="stroke fill markers" d=" M 291 160 A 3 3 0 1 1 290.99999999995777 159.99998407846124 Z"/></g></g></svg>