<svg version="1.1" xmlns="http://www.w3.org/2000/svg" xmlns:xlink="http://www.w3.org/1999/xlink" width="780" height="436"><defs><linearGradient id="WJDaKAkaIWFs" x1="0px" x2="32px" y1="0px" y2="0px" gradientUnits="userSpaceOnUse"><stop offset="0" stop-color="#38c738"/><stop offset="1" stop-color="#788778"/></linearGradient><linearGradient id="UqRwTyWONBTp" x1="0px" x2="32px" y1="0px" y2="0px" gradientUnits="userSpaceOnUse"><stop offset="0" stop-color="#08f708"/><stop offset="1" stop-color="#58a758"/></linearGradient><linearGradient id="xcPeABFTMkvP" x1="0px" x2="32px" y1="0px" y2="0px" gradientUnits="userSpaceOnUse"><stop offset="0" stop-color="#08f708"/><stop offset="1" stop-color="#58a758"/></linearGradient></defs><g><rect fill="#000000" stroke="none" x="0" y="0" width="1516" height="669"/><g transform="scale(1,1) translate(-154,2)"><path fill="none" stroke="#877878" paint-order="fill stroke markers" d=" M 272 288 L 272 320" stroke-miterlimit="10" stroke-width="3" stroke-dasharray=""/><path fill="none" stroke="#877878" paint-order="fill stroke markers" d=" M 282 320 L 262 320" stroke-miterlimit="10" stroke-width="3" stroke-dasharray=""/><path fill="none" stroke="#877878" paint-order="fill stroke markers" d=" M 278 325 L 266 325" stroke-miterlimit="10" stroke-width="3" stroke-dasharray=""/><path fill="none" stroke="#877878" paint-order="fill stroke markers" d=" M 274 330 L 270 330" stroke-miterlimit="10" stroke-width="3" stroke-dasharray=""/><path fill="none" stroke="#38c738" paint-order="fill stroke markers" d=" M 272 208 L 241 208" stroke-miterlimit="10" stroke-width="3" stroke-dasharray=""/><g><text fill="#ffffff" stroke="none" font-family="sans-serif" font-size="10px" font-style="normal" font-weight="normal" text-decoration="normal" x="211" y="208" text-anchor="start" dominant-baseline="central">+3.3V</text></g><path fill="none" stroke="#08f708" paint-order="fill stroke markers" d=" M 528 48 L 497 48" stroke-miterlimit="10" stroke-width="3" stroke-dasharray=""/><g><text fill="#ffffff" stroke="none" font-family="sans-serif" font-size="10px" font-style="normal" font-weight="normal" text-decoration="normal" x="475" y="48" text-anchor="start" dominant-baseline="central">+5V</text></g><path fill="none" stroke="#38c738" paint-order="fill stroke markers" d=" M 368 272 L 336 272" stroke-miterlimit="10" stroke-width="3" stroke-dasharray=""/><path fill="none" stroke="#877878" paint-order="fill stroke markers" d=" M 304 288 L 272 288" stroke-miterlimit="10" stroke-width="3" stroke-dasharray=""/><path fill="none" stroke="#38c738" paint-order="fill stroke markers" d=" M 304 256 L 272 256" stroke-miterlimit="10" stroke-width="3" stroke-dasharray=""/><path fill="none" stroke="#ffffff" paint-order="fill stroke markers" d=" M 336 272 L 304 256" stroke-miterlimit="10" stroke-width="3" stroke-dasharray=""/><path fill="none" stroke="#877878" paint-order="fill stroke markers" d=" M 560 368 L 560 384" stroke-miterlimit="10" stroke-width="3" stroke-dasharray=""/><path fill="none" stroke="#877878" paint-order="fill stroke markers" d=" M 570 384 L 550 384" stroke-miterlimit="10" stroke-width="3" stroke-dasharray=""/><path fill="none" stroke="#877878" paint-order="fill stroke markers" d=" M 566 389 L 554 389" stroke-miterlimit="10" stroke-width="3" stroke-dasharray=""/><path fill="none" stroke="#877878" paint-order="fill stroke markers" d=" M 562 394 L 558 394" stroke-miterlimit="10" stroke-width="3" stroke-dasharray=""/><path fill="none" stroke="#38c738" paint-order="fill stroke markers" d=" M 272 208 L 272 256" stroke-miterlimit="10" stroke-width="3" stroke-dasharray=""/><text fill="#ffffff" stroke="none" font-family="sans-serif" font-size="12px" font-style="normal" font-weight="normal" text-decoration="normal" x="278" y="238" text-anchor="start" dominant-baseline="alphabetic"></text><path fill="none" stroke="#38c738" paint-order="fill stroke markers" d=" M 368 272 L 400 272" stroke-miterlimit="10" stroke-width="3" stroke-dasharray=""/><text fill="#ffffff" stroke="none" font-family="sans-serif" font-size="12px" font-style="normal" font-weight="normal" text-decoration="normal" x="384" y="266" text-anchor="start" dominant-baseline="alphabetic"></text><path fill="none" stroke="#38c738" paint-order="fill stroke markers" d=" M 400 272 L 416 272" stroke-miterlimit="10" stroke-width="3" stroke-dasharray=""/><path fill="none" stroke="#788778" paint-order="fill stroke markers" d=" M 448 272 L 464 272" stroke-miterlimit="10" stroke-width="3" stroke-dasharray=""/><g transform="matrix(1,0,0,1,416,272)"><path fill="none" stroke="url(#WJDaKAkaIWFs)" paint-order="fill stroke markers" d=" M 0 0 L 2 6 L 6 -6 L 10 6 L 14 -6 L 18 6 L 22 -6 L 26 6 L 30 -6 L 32 0" stroke-miterlimit="10" stroke-width="3" stroke-dasharray=""/></g><text fill="#ffffff" stroke="none" font-family="sans-serif" font-size="12px" font-style="normal" font-weight="normal" text-decoration="normal" x="421" y="262" text-anchor="start" dominant-baseline="alphabetic">6.8k</text><path fill="none" stroke="#788778" paint-order="fill stroke markers" d=" M 464 272 L 528 272" stroke-miterlimit="10" stroke-width="3" stroke-dasharray=""/><path fill="#788778" stroke="none" paint-order="stroke fill markers" d=" M 502 272 L 488 265 L 488 279 Z"/><text fill="#ffffff" stroke="none" font-family="sans-serif" font-size="12px" font-style="normal" font-weight="normal" text-decoration="normal" x="466" y="266" text-anchor="start" dominant-baseline="alphabetic">386.217 μA</text><path fill="none" stroke="#877878" paint-order="fill stroke markers" d=" M 560 256 L 547 266" stroke-miterlimit="10" stroke-width="3" stroke-dasharray=""/><path fill="none" stroke="#877878" paint-order="fill stroke markers" d=" M 560 288 L 547 278" stroke-miterlimit="10" stroke-width="3" stroke-dasharray=""/><path fill="#c0c0c0" stroke="none" paint-order="stroke fill markers" d=" M 560 288 L 556 280 L 551 286 Z"/><path fill="none" stroke="#788778" paint-order="fill stroke markers" d=" M 528 272 L 544 272" stroke-miterlimit="10" stroke-width="3" stroke-dasharray=""/><path fill="#788778" stroke="none" paint-order="stroke fill markers" d=" M 544 256 L 547 256 L 547 288 L 544 288 Z"/><path fill="none" stroke="#877878" paint-order="fill stroke markers" d=" M 560 288 L 560 304" stroke-miterlimit="10" stroke-width="3" stroke-dasharray=""/><text fill="#ffffff" stroke="none" font-family="sans-serif" font-size="12px" font-style="normal" font-weight="normal" text-decoration="normal" x="566" y="302" text-anchor="start" dominant-baseline="alphabetic"></text><path fill="none" stroke="#877878" paint-order="fill stroke markers" d=" M 560 176 L 560 224" stroke-miterlimit="10" stroke-width="3" stroke-dasharray=""/><path fill="#877878" stroke="none" paint-order="stroke fill markers" d=" M 560 205 L 567 191 L 553 191 Z"/><text fill="#ffffff" stroke="none" font-family="sans-serif" font-size="12px" font-style="normal" font-weight="normal" text-decoration="normal" x="566" y="206" text-anchor="start" dominant-baseline="alphabetic">20.168 mA</text><path fill="none" stroke="#08f708" paint-order="fill stroke markers" d=" M 560 64 L 560 80" stroke-miterlimit="10" stroke-width="3" stroke-dasharray=""/><path fill="none" stroke="#58a758" paint-order="fill stroke markers" d=" M 560 112 L 560 128" stroke-miterlimit="10" stroke-width="3" stroke-dasharray=""/><g transform="matrix(0,1,-1,0,560,80)"><path fill="none" stroke="url(#UqRwTyWONBTp)" paint-order="fill stroke markers" d=" M 0 0 L 2 6 L 6 -6 L 10 6 L 14 -6 L 18 6 L 22 -6 L 26 6 L 30 -6 L 32 0" stroke-miterlimit="10" stroke-width="3" stroke-dasharray=""/></g><text fill="#ffffff" stroke="none" font-family="sans-serif" font-size="12px" font-style="normal" font-weight="normal" text-decoration="normal" x="570" y="102" text-anchor="start" dominant-baseline="alphabetic">150</text><path fill="none" stroke="#877878" paint-order="fill stroke markers" d=" M 560 304 L 560 368" stroke-miterlimit="10" stroke-width="3" stroke-dasharray=""/><path fill="#877878" stroke="none" paint-order="stroke fill markers" d=" M 560 342 L 567 328 L 553 328 Z"/><text fill="#ffffff" stroke="none" font-family="sans-serif" font-size="12px" font-style="normal" font-weight="normal" text-decoration="normal" x="566" y="342" text-anchor="start" dominant-baseline="alphabetic">20.554 mA</text><path fill="none" stroke="#58a758" paint-order="fill stroke markers" d=" M 560 128 L 560 140" stroke-miterlimit="10" stroke-width="3" stroke-dasharray=""/><path fill="none" stroke="#877878" paint-order="fill stroke markers" d=" M 560 164 L 560 176" stroke-miterlimit="10" stroke-width="3" stroke-dasharray=""/><path fill="none" stroke="#808080" paint-order="fill stroke markers" d=" M 571.76 152 A 11.76 11.76 0 1 1 571.7599941200004 151.98824000195998" stroke-miterlimit="10" stroke-width="3" stroke-dasharray=""/><path fill="#ff0000" stroke="none" paint-order="stroke fill markers" d=" M 568 152 A 8 8 0 1 1 567.9999999998873 151.9999575425633 Z"/><path fill="none" stroke="#08f708" paint-order="fill stroke markers" d=" M 528 48 L 560 48" stroke-miterlimit="10" stroke-width="3" stroke-dasharray=""/><text fill="#ffffff" stroke="none" font-family="sans-serif" font-size="12px" font-style="normal" font-weight="normal" text-decoration="normal" x="544" y="42" text-anchor="start" dominant-baseline="alphabetic"></text><path fill="none" stroke="#08f708" paint-order="fill stroke markers" d=" M 560 48 L 560 64" stroke-miterlimit="10" stroke-width="3" stroke-dasharray=""/><text fill="#ffffff" stroke="none" font-family="sans-serif" font-size="12px" font-style="normal" font-weight="normal" text-decoration="normal" x="566" y="62" text-anchor="start" dominant-baseline="alphabetic"></text><g><path fill="none" stroke="#877878" paint-order="fill stroke markers" d=" M 592 240 L 592 264" stroke-miterlimit="10" stroke-width="3" stroke-dasharray=""/><path fill="none" stroke="#877878" paint-order="fill stroke markers" d=" M 592 280 L 592 304" stroke-miterlimit="10" stroke-width="3" stroke-dasharray=""/><text fill="#ffffff" stroke="none" font-family="sans-serif" font-size="12px" font-style="normal" font-weight="normal" text-decoration="normal" x="598" y="278" text-anchor="start" dominant-baseline="alphabetic">122.381 mV</text><text fill="#ffffff" stroke="none" font-family="sans-serif" font-size="12px" font-style="normal" font-weight="normal" text-decoration="normal" x="579" y="264" text-anchor="start" dominant-baseline="alphabetic">+</text></g><path fill="none" stroke="#877878" paint-order="fill stroke markers" d=" M 592 304 L 560 304" stroke-miterlimit="10" stroke-width="3" stroke-dasharray=""/><text fill="#ffffff" stroke="none" font-family="sans-serif" font-size="12px" font-style="normal" font-weight="normal" text-decoration="normal" x="576" y="298" text-anchor="start" dominant-baseline="alphabetic"></text><path fill="none" stroke="#877878" paint-order="fill stroke markers" d=" M 592 240 L 560 240" stroke-miterlimit="10" stroke-width="3" stroke-dasharray=""/><text fill="#ffffff" stroke="none" font-family="sans-serif" font-size="12px" font-style="normal" font-weight="normal" text-decoration="normal" x="576" y="234" text-anchor="start" dominant-baseline="alphabetic"></text><path fill="none" stroke="#877878" paint-order="fill stroke markers" d=" M 560 224 L 560 240" stroke-miterlimit="10" stroke-width="3" stroke-dasharray=""/><text fill="#ffffff" stroke="none" font-family="sans-serif" font-size="12px" font-style="normal" font-weight="normal" text-decoration="normal" x="566" y="238" text-anchor="start" dominant-baseline="alphabetic"></text><path fill="none" stroke="#877878" paint-order="fill stroke markers" d=" M 560 240 L 560 256" stroke-miterlimit="10" stroke-width="3" stroke-dasharray=""/><text fill="#ffffff" stroke="none" font-family="sans-serif" font-size="12px" font-style="normal" font-weight="normal" text-decoration="normal" x="566" y="254" text-anchor="start" dominant-baseline="alphabetic"></text><g><path fill="none" stroke="#58a758" paint-order="fill stroke markers" d=" M 592 128 L 592 144" stroke-miterlimit="10" stroke-width="3" stroke-dasharray=""/><path fill="none" stroke="#877878" paint-order="fill stroke markers" d=" M 592 160 L 592 176" stroke-miterlimit="10" stroke-width="3" stroke-dasharray=""/><text fill="#ffffff" stroke="none" font-family="sans-serif" font-size="12px" font-style="normal" font-weight="normal" text-decoration="normal" x="598" y="158" text-anchor="start" dominant-baseline="alphabetic">1.852 V</text><text fill="#ffffff" stroke="none" font-family="sans-serif" font-size="12px" font-style="normal" font-weight="normal" text-decoration="normal" x="579" y="144" text-anchor="start" dominant-baseline="alphabetic">+</text></g><path fill="none" stroke="#58a758" paint-order="fill stroke markers" d=" M 592 128 L 560 128" stroke-miterlimit="10" stroke-width="3" stroke-dasharray=""/><text fill="#ffffff" stroke="none" font-family="sans-serif" font-size="12px" font-style="normal" font-weight="normal" text-decoration="normal" x="576" y="122" text-anchor="start" dominant-baseline="alphabetic"></text><path fill="none" stroke="#877878" paint-order="fill stroke markers" d=" M 592 176 L 560 176" stroke-miterlimit="10" stroke-width="3" stroke-dasharray=""/><text fill="#ffffff" stroke="none" font-family="sans-serif" font-size="12px" font-style="normal" font-weight="normal" text-decoration="normal" x="576" y="170" text-anchor="start" dominant-baseline="alphabetic"></text><path fill="none" stroke="#877878" paint-order="fill stroke markers" d=" M 864 176 L 832 176" stroke-miterlimit="10" stroke-width="3" stroke-dasharray=""/><text fill="#ffffff" stroke="none" font-family="sans-serif" font-size="12px" font-style="normal" font-weight="normal" text-decoration="normal" x="848" y="170" text-anchor="start" dominant-baseline="alphabetic"></text><path fill="none" stroke="#58a758" paint-order="fill stroke markers" d=" M 864 128 L 832 128" stroke-miterlimit="10" stroke-width="3" stroke-dasharray=""/><text fill="#ffffff" stroke="none" font-family="sans-serif" font-size="12px" font-style="normal" font-weight="normal" text-decoration="normal" x="848" y="122" text-anchor="start" dominant-baseline="alphabetic"></text><g><path fill="none" stroke="#58a758" paint-order="fill stroke markers" d=" M 864 128 L 864 144" stroke-miterlimit="10" stroke-width="3" stroke-dasharray=""/><path fill="none" stroke="#877878" paint-order="fill stroke markers" d=" M 864 160 L 864 176" stroke-miterlimit="10" stroke-width="3" stroke-dasharray=""/><text fill="#ffffff" stroke="none" font-family="sans-serif" font-size="12px" font-style="normal" font-weight="normal" text-decoration="normal" x="870" y="158" text-anchor="start" dominant-baseline="alphabetic">1.856 V</text><text fill="#ffffff" stroke="none" font-family="sans-serif" font-size="12px" font-style="normal" font-weight="normal" text-decoration="normal" x="851" y="144" text-anchor="start" dominant-baseline="alphabetic">+</text></g><path fill="none" stroke="#08f708" paint-order="fill stroke markers" d=" M 832 48 L 832 64" stroke-miterlimit="10" stroke-width="3" stroke-dasharray=""/><text fill="#ffffff" stroke="none" font-family="sans-serif" font-size="12px" font-style="normal" font-weight="normal" text-decoration="normal" x="838" y="62" text-anchor="start" dominant-baseline="alphabetic"></text><path fill="none" stroke="#08f708" paint-order="fill stroke markers" d=" M 800 48 L 832 48" stroke-miterlimit="10" stroke-width="3" stroke-dasharray=""/><text fill="#ffffff" stroke="none" font-family="sans-serif" font-size="12px" font-style="normal" font-weight="normal" text-decoration="normal" x="816" y="42" text-anchor="start" dominant-baseline="alphabetic"></text><path fill="none" stroke="#58a758" paint-order="fill stroke markers" d=" M 832 128 L 832 140" stroke-miterlimit="10" stroke-width="3" stroke-dasharray=""/><path fill="none" stroke="#877878" paint-order="fill stroke markers" d=" M 832 164 L 832 176" stroke-miterlimit="10" stroke-width="3" stroke-dasharray=""/><path fill="none" stroke="#808080" paint-order="fill stroke markers" d=" M 843.76 152 A 11.76 11.76 0 1 1 843.7599941200004 151.98824000195998" stroke-miterlimit="10" stroke-width="3" stroke-dasharray=""/><path fill="#ff0000" stroke="none" paint-order="stroke fill markers" d=" M 840 152 A 8 8 0 1 1 839.9999999998873 151.9999575425633 Z"/><path fill="none" stroke="#08f708" paint-order="fill stroke markers" d=" M 832 64 L 832 80" stroke-miterlimit="10" stroke-width="3" stroke-dasharray=""/><path fill="none" stroke="#58a758" paint-order="fill stroke markers" d=" M 832 112 L 832 128" stroke-miterlimit="10" stroke-width="3" stroke-dasharray=""/><g transform="matrix(0,1,-1,0,832,80)"><path fill="none" stroke="url(#xcPeABFTMkvP)" paint-order="fill stroke markers" d=" M 0 0 L 2 6 L 6 -6 L 10 6 L 14 -6 L 18 6 L 22 -6 L 26 6 L 30 -6 L 32 0" stroke-miterlimit="10" stroke-width="3" stroke-dasharray=""/></g><text fill="#ffffff" stroke="none" font-family="sans-serif" font-size="12px" font-style="normal" font-weight="normal" text-decoration="normal" x="842" y="102" text-anchor="start" dominant-baseline="alphabetic">150</text><path fill="none" stroke="#877878" paint-order="fill stroke markers" d=" M 832 176 L 832 224" stroke-miterlimit="10" stroke-width="3" stroke-dasharray=""/><path fill="#877878" stroke="none" paint-order="stroke fill markers" d=" M 832 205 L 839 191 L 825 191 Z"/><text fill="#ffffff" stroke="none" font-family="sans-serif" font-size="12px" font-style="normal" font-weight="normal" text-decoration="normal" x="838" y="206" text-anchor="start" dominant-baseline="alphabetic">20.959 mA</text><path fill="none" stroke="#877878" paint-order="fill stroke markers" d=" M 832 224 L 832 240" stroke-miterlimit="10" stroke-width="3" stroke-dasharray=""/><path fill="none" stroke="#877878" paint-order="fill stroke markers" d=" M 842 240 L 822 240" stroke-miterlimit="10" stroke-width="3" stroke-dasharray=""/><path fill="none" stroke="#877878" paint-order="fill stroke markers" d=" M 838 245 L 826 245" stroke-miterlimit="10" stroke-width="3" stroke-dasharray=""/><path fill="none" stroke="#877878" paint-order="fill stroke markers" d=" M 834 250 L 830 250" stroke-miterlimit="10" stroke-width="3" stroke-dasharray=""/><path fill="none" stroke="#08f708" paint-order="fill stroke markers" d=" M 800 48 L 769 48" stroke-miterlimit="10" stroke-width="3" stroke-dasharray=""/><g><text fill="#ffffff" stroke="none" font-family="sans-serif" font-size="12px" font-style="normal" font-weight="normal" text-decoration="normal" x="744" y="48" text-anchor="start" dominant-baseline="central">+5V</text></g><path fill="#ffffff" stroke="none" paint-order="stroke fill markers" d=" M 563 128 A 3 3 0 1 1 562.9999999999577 127.99998407846124 Z"/><path fill="#ffffff" stroke="none" paint-order="stroke fill markers" d=" M 563 176 A 3 3 0 1 1 562.9999999999577 175.99998407846124 Z"/><path fill="#ffffff" stroke="none" paint-order="stroke fill markers" d=" M 563 240 A 3 3 0 1 1 562.9999999999577 239.99998407846124 Z"/><path fill="#ffffff" stroke="none" paint-order="stroke fill markers" d=" M 563 304 A 3 3 0 1 1 562.9999999999577 303.99998407846124 Z"/><path fill="#ffffff" stroke="none" paint-order="stroke fill markers" d=" M 835 128 A 3 3 0 1 1 834.9999999999577 127.99998407846124 Z"/><path fill="#ffffff" stroke="none" paint-order="stroke fill markers" d=" M 835 176 A 3 3 0 1 1 834.9999999999577 175.99998407846124 Z"/></g></g></svg>