<svg version="1.1" xmlns="http://www.w3.org/2000/svg" xmlns:xlink="http://www.w3.org/1999/xlink" width="524" height="468"><defs><linearGradient id="TfwpXsdiucfa" x1="0px" x2="32px" y1="0px" y2="0px" gradientUnits="userSpaceOnUse"><stop offset="0" stop-color="#877878"/><stop offset="1" stop-color="#877878"/></linearGradient><linearGradient id="BREaCLpEhpNg" x1="0px" x2="32px" y1="0px" y2="0px" gradientUnits="userSpaceOnUse"><stop offset="0" stop-color="#08f708"/><stop offset="1" stop-color="#10ef10"/></linearGradient></defs><g><rect fill="#000000" stroke="none" x="0" y="0" width="1516" height="669"/><g transform="scale(1,1) translate(-298,-46)"><path fill="none" stroke="#877878" paint-order="fill stroke markers" d=" M 416 352 L 416 384" stroke-miterlimit="10" stroke-width="3" stroke-dasharray=""/><path fill="none" stroke="#877878" paint-order="fill stroke markers" d=" M 426 384 L 406 384" stroke-miterlimit="10" stroke-width="3" stroke-dasharray=""/><path fill="none" stroke="#877878" paint-order="fill stroke markers" d=" M 422 389 L 410 389" stroke-miterlimit="10" stroke-width="3" stroke-dasharray=""/><path fill="none" stroke="#877878" paint-order="fill stroke markers" d=" M 418 394 L 414 394" stroke-miterlimit="10" stroke-width="3" stroke-dasharray=""/><path fill="none" stroke="#38c738" paint-order="fill stroke markers" d=" M 416 272 L 385 272" stroke-miterlimit="10" stroke-width="3" stroke-dasharray=""/><g><text fill="#ffffff" stroke="none" font-family="sans-serif" font-size="10px" font-style="normal" font-weight="normal" text-decoration="normal" x="355" y="272" text-anchor="start" dominant-baseline="central">+3.3V</text></g><path fill="none" stroke="#08f708" paint-order="fill stroke markers" d=" M 720 96 L 689 96" stroke-miterlimit="10" stroke-width="3" stroke-dasharray=""/><g><text fill="#ffffff" stroke="none" font-family="sans-serif" font-size="10px" font-style="normal" font-weight="normal" text-decoration="normal" x="667" y="96" text-anchor="start" dominant-baseline="central">+5V</text></g><path fill="none" stroke="#877878" paint-order="fill stroke markers" d=" M 512 336 L 480 336" stroke-miterlimit="10" stroke-width="3" stroke-dasharray=""/><path fill="none" stroke="#877878" paint-order="fill stroke markers" d=" M 448 352 L 416 352" stroke-miterlimit="10" stroke-width="3" stroke-dasharray=""/><path fill="none" stroke="#38c738" paint-order="fill stroke markers" d=" M 448 320 L 416 320" stroke-miterlimit="10" stroke-width="3" stroke-dasharray=""/><path fill="none" stroke="#ffffff" paint-order="fill stroke markers" d=" M 480 336 L 448 352" stroke-miterlimit="10" stroke-width="3" stroke-dasharray=""/><path fill="none" stroke="#877878" paint-order="fill stroke markers" d=" M 752 432 L 752 464" stroke-miterlimit="10" stroke-width="3" stroke-dasharray=""/><path fill="none" stroke="#877878" paint-order="fill stroke markers" d=" M 762 464 L 742 464" stroke-miterlimit="10" stroke-width="3" stroke-dasharray=""/><path fill="none" stroke="#877878" paint-order="fill stroke markers" d=" M 758 469 L 746 469" stroke-miterlimit="10" stroke-width="3" stroke-dasharray=""/><path fill="none" stroke="#877878" paint-order="fill stroke markers" d=" M 754 474 L 750 474" stroke-miterlimit="10" stroke-width="3" stroke-dasharray=""/><path fill="none" stroke="#38c738" paint-order="fill stroke markers" d=" M 416 272 L 416 320" stroke-miterlimit="10" stroke-width="3" stroke-dasharray=""/><text fill="#ffffff" stroke="none" font-family="sans-serif" font-size="12px" font-style="normal" font-weight="normal" text-decoration="normal" x="422" y="302" text-anchor="start" dominant-baseline="alphabetic"></text><path fill="none" stroke="#877878" paint-order="fill stroke markers" d=" M 512 336 L 544 336" stroke-miterlimit="10" stroke-width="3" stroke-dasharray=""/><text fill="#ffffff" stroke="none" font-family="sans-serif" font-size="12px" font-style="normal" font-weight="normal" text-decoration="normal" x="528" y="330" text-anchor="start" dominant-baseline="alphabetic"></text><path fill="none" stroke="#877878" paint-order="fill stroke markers" d=" M 544 336 L 568 336" stroke-miterlimit="10" stroke-width="3" stroke-dasharray=""/><path fill="none" stroke="#877878" paint-order="fill stroke markers" d=" M 600 336 L 624 336" stroke-miterlimit="10" stroke-width="3" stroke-dasharray=""/><g transform="matrix(1,0,0,1,568,336)"><path fill="none" stroke="url(#TfwpXsdiucfa)" paint-order="fill stroke markers" d=" M 0 0 L 2 6 L 6 -6 L 10 6 L 14 -6 L 18 6 L 22 -6 L 26 6 L 30 -6 L 32 0" stroke-miterlimit="10" stroke-width="3" stroke-dasharray=""/></g><text fill="#ffffff" stroke="none" font-family="sans-serif" font-size="12px" font-style="normal" font-weight="normal" text-decoration="normal" x="573" y="326" text-anchor="start" dominant-baseline="alphabetic">6.8k</text><path fill="none" stroke="#877878" paint-order="fill stroke markers" d=" M 624 336 L 704 336" stroke-miterlimit="10" stroke-width="3" stroke-dasharray=""/><path fill="#877878" stroke="none" paint-order="stroke fill markers" d=" M 672 336 L 658 329 L 658 343 Z"/><text fill="#ffffff" stroke="none" font-family="sans-serif" font-size="12px" font-style="normal" font-weight="normal" text-decoration="normal" x="642" y="330" text-anchor="start" dominant-baseline="alphabetic">-5.09 pA</text><path fill="none" stroke="#10ef10" paint-order="fill stroke markers" d=" M 752 320 L 739 330" stroke-miterlimit="10" stroke-width="3" stroke-dasharray=""/><path fill="none" stroke="#877878" paint-order="fill stroke markers" d=" M 752 352 L 739 342" stroke-miterlimit="10" stroke-width="3" stroke-dasharray=""/><path fill="#c0c0c0" stroke="none" paint-order="stroke fill markers" d=" M 752 352 L 748 344 L 743 350 Z"/><path fill="none" stroke="#877878" paint-order="fill stroke markers" d=" M 704 336 L 736 336" stroke-miterlimit="10" stroke-width="3" stroke-dasharray=""/><path fill="#877878" stroke="none" paint-order="stroke fill markers" d=" M 736 320 L 739 320 L 739 352 L 736 352 Z"/><path fill="none" stroke="#877878" paint-order="fill stroke markers" d=" M 752 352 L 752 368" stroke-miterlimit="10" stroke-width="3" stroke-dasharray=""/><text fill="#ffffff" stroke="none" font-family="sans-serif" font-size="12px" font-style="normal" font-weight="normal" text-decoration="normal" x="758" y="366" text-anchor="start" dominant-baseline="alphabetic"></text><path fill="none" stroke="#10ef10" paint-order="fill stroke markers" d=" M 752 320 L 752 288" stroke-miterlimit="10" stroke-width="3" stroke-dasharray=""/><text fill="#ffffff" stroke="none" font-family="sans-serif" font-size="12px" font-style="normal" font-weight="normal" text-decoration="normal" x="758" y="310" text-anchor="start" dominant-baseline="alphabetic"></text><path fill="none" stroke="#10ef10" paint-order="fill stroke markers" d=" M 752 240 L 752 288" stroke-miterlimit="10" stroke-width="3" stroke-dasharray=""/><path fill="#10ef10" stroke="none" paint-order="stroke fill markers" d=" M 752 269 L 759 255 L 745 255 Z"/><text fill="#ffffff" stroke="none" font-family="sans-serif" font-size="12px" font-style="normal" font-weight="normal" text-decoration="normal" x="758" y="270" text-anchor="start" dominant-baseline="alphabetic">10.18 pA</text><path fill="none" stroke="#08f708" paint-order="fill stroke markers" d=" M 752 128 L 752 144" stroke-miterlimit="10" stroke-width="3" stroke-dasharray=""/><path fill="none" stroke="#10ef10" paint-order="fill stroke markers" d=" M 752 176 L 752 192" stroke-miterlimit="10" stroke-width="3" stroke-dasharray=""/><g transform="matrix(0,1,-1,0,752,144)"><path fill="none" stroke="url(#BREaCLpEhpNg)" paint-order="fill stroke markers" d=" M 0 0 L 2 6 L 6 -6 L 10 6 L 14 -6 L 18 6 L 22 -6 L 26 6 L 30 -6 L 32 0" stroke-miterlimit="10" stroke-width="3" stroke-dasharray=""/></g><text fill="#ffffff" stroke="none" font-family="sans-serif" font-size="12px" font-style="normal" font-weight="normal" text-decoration="normal" x="762" y="166" text-anchor="start" dominant-baseline="alphabetic">100</text><path fill="none" stroke="#877878" paint-order="fill stroke markers" d=" M 752 368 L 752 432" stroke-miterlimit="10" stroke-width="3" stroke-dasharray=""/><path fill="#877878" stroke="none" paint-order="stroke fill markers" d=" M 752 406 L 759 392 L 745 392 Z"/><text fill="#ffffff" stroke="none" font-family="sans-serif" font-size="12px" font-style="normal" font-weight="normal" text-decoration="normal" x="758" y="406" text-anchor="start" dominant-baseline="alphabetic">5.09 pA</text><path fill="none" stroke="#10ef10" paint-order="fill stroke markers" d=" M 752 192 L 752 204" stroke-miterlimit="10" stroke-width="3" stroke-dasharray=""/><path fill="none" stroke="#10ef10" paint-order="fill stroke markers" d=" M 752 228 L 752 240" stroke-miterlimit="10" stroke-width="3" stroke-dasharray=""/><path fill="none" stroke="#808080" paint-order="fill stroke markers" d=" M 763.76 216 A 11.76 11.76 0 1 1 763.7599941200004 215.98824000195998" stroke-miterlimit="10" stroke-width="3" stroke-dasharray=""/><path fill="#000000" stroke="none" paint-order="stroke fill markers" d=" M 760 216 A 8 8 0 1 1 759.9999999998873 215.9999575425633 Z"/><path fill="none" stroke="#08f708" paint-order="fill stroke markers" d=" M 720 96 L 752 96" stroke-miterlimit="10" stroke-width="3" stroke-dasharray=""/><text fill="#ffffff" stroke="none" font-family="sans-serif" font-size="12px" font-style="normal" font-weight="normal" text-decoration="normal" x="736" y="90" text-anchor="start" dominant-baseline="alphabetic"></text><path fill="none" stroke="#08f708" paint-order="fill stroke markers" d=" M 752 96 L 752 128" stroke-miterlimit="10" stroke-width="3" stroke-dasharray=""/><text fill="#ffffff" stroke="none" font-family="sans-serif" font-size="12px" font-style="normal" font-weight="normal" text-decoration="normal" x="758" y="118" text-anchor="start" dominant-baseline="alphabetic"></text></g></g></svg>