<svg version="1.1" xmlns="http://www.w3.org/2000/svg" xmlns:xlink="http://www.w3.org/1999/xlink" width="828" height="580"><defs><linearGradient id="oNfqTngFvAtt" x1="0px" x2="32px" y1="0px" y2="0px" gradientUnits="userSpaceOnUse"><stop offset="0" stop-color="#40bf40"/><stop offset="1" stop-color="#689768"/></linearGradient><linearGradient id="MVlKuUQCqWQe" x1="0px" x2="32px" y1="0px" y2="0px" gradientUnits="userSpaceOnUse"><stop offset="0" stop-color="#18e718"/><stop offset="1" stop-color="#48b748"/></linearGradient><linearGradient id="pUlgRBfmrqxC" x1="0px" x2="32px" y1="0px" y2="0px" gradientUnits="userSpaceOnUse"><stop offset="0" stop-color="#08f708"/><stop offset="1" stop-color="#58a758"/></linearGradient><linearGradient id="ErXsgUrphJol" x1="0px" x2="32px" y1="0px" y2="0px" gradientUnits="userSpaceOnUse"><stop offset="0" stop-color="#877878"/><stop offset="1" stop-color="#20df20"/></linearGradient><linearGradient id="sJIKvTtSVldC" x1="0px" x2="32px" y1="0px" y2="0px" gradientUnits="userSpaceOnUse"><stop offset="0" stop-color="#08f708"/><stop offset="1" stop-color="#18e718"/></linearGradient></defs><g><rect fill="#000000" stroke="none" x="0" y="0" width="1219" height="639"/><g transform="scale(1,1) translate(38,114)"><path fill="none" stroke="#877878" paint-order="fill stroke markers" d=" M 144 320 L 144 352" stroke-miterlimit="10" stroke-width="3" stroke-dasharray=""/><path fill="none" stroke="#877878" paint-order="fill stroke markers" d=" M 154 352 L 134 352" stroke-miterlimit="10" stroke-width="3" stroke-dasharray=""/><path fill="none" stroke="#877878" paint-order="fill stroke markers" d=" M 150 357 L 138 357" stroke-miterlimit="10" stroke-width="3" stroke-dasharray=""/><path fill="none" stroke="#877878" paint-order="fill stroke markers" d=" M 146 362 L 142 362" stroke-miterlimit="10" stroke-width="3" stroke-dasharray=""/><path fill="none" stroke="#40bf40" paint-order="fill stroke markers" d=" M 240 304 L 208 304" stroke-miterlimit="10" stroke-width="3" stroke-dasharray=""/><path fill="none" stroke="#877878" paint-order="fill stroke markers" d=" M 176 320 L 144 320" stroke-miterlimit="10" stroke-width="3" stroke-dasharray=""/><path fill="none" stroke="#40bf40" paint-order="fill stroke markers" d=" M 176 288 L 144 288" stroke-miterlimit="10" stroke-width="3" stroke-dasharray=""/><path fill="none" stroke="#ffffff" paint-order="fill stroke markers" d=" M 208 304 L 176 288" stroke-miterlimit="10" stroke-width="3" stroke-dasharray=""/><path fill="none" stroke="#877878" paint-order="fill stroke markers" d=" M 416 400 L 416 416" stroke-miterlimit="10" stroke-width="3" stroke-dasharray=""/><path fill="none" stroke="#877878" paint-order="fill stroke markers" d=" M 426 416 L 406 416" stroke-miterlimit="10" stroke-width="3" stroke-dasharray=""/><path fill="none" stroke="#877878" paint-order="fill stroke markers" d=" M 422 421 L 410 421" stroke-miterlimit="10" stroke-width="3" stroke-dasharray=""/><path fill="none" stroke="#877878" paint-order="fill stroke markers" d=" M 418 426 L 414 426" stroke-miterlimit="10" stroke-width="3" stroke-dasharray=""/><path fill="none" stroke="#40bf40" paint-order="fill stroke markers" d=" M 240 304 L 256 304" stroke-miterlimit="10" stroke-width="3" stroke-dasharray=""/><path fill="none" stroke="#689768" paint-order="fill stroke markers" d=" M 288 304 L 304 304" stroke-miterlimit="10" stroke-width="3" stroke-dasharray=""/><g transform="matrix(1,0,0,1,256,304)"><path fill="none" stroke="url(#oNfqTngFvAtt)" paint-order="fill stroke markers" d=" M 0 0 L 2 6 L 6 -6 L 10 6 L 14 -6 L 18 6 L 22 -6 L 26 6 L 30 -6 L 32 0" stroke-miterlimit="10" stroke-width="3" stroke-dasharray=""/></g><text fill="#ffffff" stroke="none" font-family="sans-serif" font-size="12px" font-style="normal" font-weight="normal" text-decoration="normal" x="261" y="294" text-anchor="start" dominant-baseline="alphabetic">6.8k</text><path fill="none" stroke="#689768" paint-order="fill stroke markers" d=" M 320 304 L 384 304" stroke-miterlimit="10" stroke-width="3" stroke-dasharray=""/><path fill="#689768" stroke="none" paint-order="stroke fill markers" d=" M 358 304 L 344 297 L 344 311 Z"/><text fill="#ffffff" stroke="none" font-family="sans-serif" font-size="12px" font-style="normal" font-weight="normal" text-decoration="normal" x="322" y="298" text-anchor="start" dominant-baseline="alphabetic">248.373 μA</text><path fill="none" stroke="#877878" paint-order="fill stroke markers" d=" M 416 320 L 416 336" stroke-miterlimit="10" stroke-width="3" stroke-dasharray=""/><text fill="#ffffff" stroke="none" font-family="sans-serif" font-size="12px" font-style="normal" font-weight="normal" text-decoration="normal" x="422" y="334" text-anchor="start" dominant-baseline="alphabetic"></text><path fill="none" stroke="#788778" paint-order="fill stroke markers" d=" M 416 208 L 416 256" stroke-miterlimit="10" stroke-width="3" stroke-dasharray=""/><path fill="#788778" stroke="none" paint-order="stroke fill markers" d=" M 416 237 L 423 223 L 409 223 Z"/><text fill="#ffffff" stroke="none" font-family="sans-serif" font-size="12px" font-style="normal" font-weight="normal" text-decoration="normal" x="422" y="238" text-anchor="start" dominant-baseline="alphabetic">13.931 mA</text><path fill="none" stroke="#18e718" paint-order="fill stroke markers" d=" M 416 96 L 416 112" stroke-miterlimit="10" stroke-width="3" stroke-dasharray=""/><path fill="none" stroke="#48b748" paint-order="fill stroke markers" d=" M 416 144 L 416 160" stroke-miterlimit="10" stroke-width="3" stroke-dasharray=""/><g transform="matrix(0,1,-1,0,416,112)"><path fill="none" stroke="url(#MVlKuUQCqWQe)" paint-order="fill stroke markers" d=" M 0 0 L 2 6 L 6 -6 L 10 6 L 14 -6 L 18 6 L 22 -6 L 26 6 L 30 -6 L 32 0" stroke-miterlimit="10" stroke-width="3" stroke-dasharray=""/></g><text fill="#ffffff" stroke="none" font-family="sans-serif" font-size="12px" font-style="normal" font-weight="normal" text-decoration="normal" x="426" y="134" text-anchor="start" dominant-baseline="alphabetic">150</text><path fill="none" stroke="#877878" paint-order="fill stroke markers" d=" M 416 336 L 416 400" stroke-miterlimit="10" stroke-width="3" stroke-dasharray=""/><path fill="#877878" stroke="none" paint-order="stroke fill markers" d=" M 416 374 L 423 360 L 409 360 Z"/><text fill="#ffffff" stroke="none" font-family="sans-serif" font-size="12px" font-style="normal" font-weight="normal" text-decoration="normal" x="422" y="374" text-anchor="start" dominant-baseline="alphabetic">14.179 mA</text><path fill="none" stroke="#48b748" paint-order="fill stroke markers" d=" M 416 160 L 416 172" stroke-miterlimit="10" stroke-width="3" stroke-dasharray=""/><path fill="none" stroke="#788778" paint-order="fill stroke markers" d=" M 416 196 L 416 208" stroke-miterlimit="10" stroke-width="3" stroke-dasharray=""/><path fill="none" stroke="#808080" paint-order="fill stroke markers" d=" M 427.76 184 A 11.76 11.76 0 1 1 427.7599941200005 183.98824000195998" stroke-miterlimit="10" stroke-width="3" stroke-dasharray=""/><path fill="#ff0000" stroke="none" paint-order="stroke fill markers" d=" M 424 184 A 8 8 0 1 1 423.99999999988734 183.9999575425633 Z"/><path fill="none" stroke="#08f708" paint-order="fill stroke markers" d=" M 416 48 L 416 64" stroke-miterlimit="10" stroke-width="3" stroke-dasharray=""/><text fill="#ffffff" stroke="none" font-family="sans-serif" font-size="12px" font-style="normal" font-weight="normal" text-decoration="normal" x="422" y="62" text-anchor="start" dominant-baseline="alphabetic"></text><g><path fill="none" stroke="#788778" paint-order="fill stroke markers" d=" M 448 272 L 448 296" stroke-miterlimit="10" stroke-width="3" stroke-dasharray=""/><path fill="none" stroke="#877878" paint-order="fill stroke markers" d=" M 448 312 L 448 336" stroke-miterlimit="10" stroke-width="3" stroke-dasharray=""/><text fill="#ffffff" stroke="none" font-family="sans-serif" font-size="12px" font-style="normal" font-weight="normal" text-decoration="normal" x="454" y="310" text-anchor="start" dominant-baseline="alphabetic">675.371 mV</text><text fill="#ffffff" stroke="none" font-family="sans-serif" font-size="12px" font-style="normal" font-weight="normal" text-decoration="normal" x="435" y="296" text-anchor="start" dominant-baseline="alphabetic">+</text></g><path fill="none" stroke="#877878" paint-order="fill stroke markers" d=" M 448 336 L 416 336" stroke-miterlimit="10" stroke-width="3" stroke-dasharray=""/><text fill="#ffffff" stroke="none" font-family="sans-serif" font-size="12px" font-style="normal" font-weight="normal" text-decoration="normal" x="432" y="330" text-anchor="start" dominant-baseline="alphabetic"></text><path fill="none" stroke="#788778" paint-order="fill stroke markers" d=" M 448 272 L 416 272" stroke-miterlimit="10" stroke-width="3" stroke-dasharray=""/><text fill="#ffffff" stroke="none" font-family="sans-serif" font-size="12px" font-style="normal" font-weight="normal" text-decoration="normal" x="432" y="266" text-anchor="start" dominant-baseline="alphabetic"></text><path fill="none" stroke="#788778" paint-order="fill stroke markers" d=" M 416 256 L 416 272" stroke-miterlimit="10" stroke-width="3" stroke-dasharray=""/><text fill="#ffffff" stroke="none" font-family="sans-serif" font-size="12px" font-style="normal" font-weight="normal" text-decoration="normal" x="422" y="270" text-anchor="start" dominant-baseline="alphabetic"></text><path fill="none" stroke="#788778" paint-order="fill stroke markers" d=" M 416 272 L 416 288" stroke-miterlimit="10" stroke-width="3" stroke-dasharray=""/><text fill="#ffffff" stroke="none" font-family="sans-serif" font-size="12px" font-style="normal" font-weight="normal" text-decoration="normal" x="422" y="286" text-anchor="start" dominant-baseline="alphabetic"></text><g><path fill="none" stroke="#48b748" paint-order="fill stroke markers" d=" M 448 160 L 448 176" stroke-miterlimit="10" stroke-width="3" stroke-dasharray=""/><path fill="none" stroke="#788778" paint-order="fill stroke markers" d=" M 448 192 L 448 208" stroke-miterlimit="10" stroke-width="3" stroke-dasharray=""/><text fill="#ffffff" stroke="none" font-family="sans-serif" font-size="12px" font-style="normal" font-weight="normal" text-decoration="normal" x="454" y="190" text-anchor="start" dominant-baseline="alphabetic">1.817 V</text><text fill="#ffffff" stroke="none" font-family="sans-serif" font-size="12px" font-style="normal" font-weight="normal" text-decoration="normal" x="435" y="176" text-anchor="start" dominant-baseline="alphabetic">+</text></g><path fill="none" stroke="#48b748" paint-order="fill stroke markers" d=" M 448 160 L 416 160" stroke-miterlimit="10" stroke-width="3" stroke-dasharray=""/><text fill="#ffffff" stroke="none" font-family="sans-serif" font-size="12px" font-style="normal" font-weight="normal" text-decoration="normal" x="432" y="154" text-anchor="start" dominant-baseline="alphabetic"></text><path fill="none" stroke="#788778" paint-order="fill stroke markers" d=" M 448 208 L 416 208" stroke-miterlimit="10" stroke-width="3" stroke-dasharray=""/><text fill="#ffffff" stroke="none" font-family="sans-serif" font-size="12px" font-style="normal" font-weight="normal" text-decoration="normal" x="432" y="202" text-anchor="start" dominant-baseline="alphabetic"></text><path fill="none" stroke="#877878" paint-order="fill stroke markers" d=" M 720 208 L 688 208" stroke-miterlimit="10" stroke-width="3" stroke-dasharray=""/><text fill="#ffffff" stroke="none" font-family="sans-serif" font-size="12px" font-style="normal" font-weight="normal" text-decoration="normal" x="704" y="202" text-anchor="start" dominant-baseline="alphabetic"></text><path fill="none" stroke="#58a758" paint-order="fill stroke markers" d=" M 720 160 L 688 160" stroke-miterlimit="10" stroke-width="3" stroke-dasharray=""/><text fill="#ffffff" stroke="none" font-family="sans-serif" font-size="12px" font-style="normal" font-weight="normal" text-decoration="normal" x="704" y="154" text-anchor="start" dominant-baseline="alphabetic"></text><g><path fill="none" stroke="#58a758" paint-order="fill stroke markers" d=" M 720 160 L 720 176" stroke-miterlimit="10" stroke-width="3" stroke-dasharray=""/><path fill="none" stroke="#877878" paint-order="fill stroke markers" d=" M 720 192 L 720 208" stroke-miterlimit="10" stroke-width="3" stroke-dasharray=""/><text fill="#ffffff" stroke="none" font-family="sans-serif" font-size="12px" font-style="normal" font-weight="normal" text-decoration="normal" x="726" y="190" text-anchor="start" dominant-baseline="alphabetic">1.856 V</text><text fill="#ffffff" stroke="none" font-family="sans-serif" font-size="12px" font-style="normal" font-weight="normal" text-decoration="normal" x="707" y="176" text-anchor="start" dominant-baseline="alphabetic">+</text></g><path fill="none" stroke="#08f708" paint-order="fill stroke markers" d=" M 688 80 L 688 96" stroke-miterlimit="10" stroke-width="3" stroke-dasharray=""/><text fill="#ffffff" stroke="none" font-family="sans-serif" font-size="12px" font-style="normal" font-weight="normal" text-decoration="normal" x="694" y="94" text-anchor="start" dominant-baseline="alphabetic"></text><path fill="none" stroke="#08f708" paint-order="fill stroke markers" d=" M 656 80 L 688 80" stroke-miterlimit="10" stroke-width="3" stroke-dasharray=""/><text fill="#ffffff" stroke="none" font-family="sans-serif" font-size="12px" font-style="normal" font-weight="normal" text-decoration="normal" x="672" y="74" text-anchor="start" dominant-baseline="alphabetic"></text><path fill="none" stroke="#58a758" paint-order="fill stroke markers" d=" M 688 160 L 688 172" stroke-miterlimit="10" stroke-width="3" stroke-dasharray=""/><path fill="none" stroke="#877878" paint-order="fill stroke markers" d=" M 688 196 L 688 208" stroke-miterlimit="10" stroke-width="3" stroke-dasharray=""/><path fill="none" stroke="#808080" paint-order="fill stroke markers" d=" M 699.76 184 A 11.76 11.76 0 1 1 699.7599941200004 183.98824000195998" stroke-miterlimit="10" stroke-width="3" stroke-dasharray=""/><path fill="#ff0000" stroke="none" paint-order="stroke fill markers" d=" M 696 184 A 8 8 0 1 1 695.9999999998873 183.9999575425633 Z"/><path fill="none" stroke="#08f708" paint-order="fill stroke markers" d=" M 688 96 L 688 112" stroke-miterlimit="10" stroke-width="3" stroke-dasharray=""/><path fill="none" stroke="#58a758" paint-order="fill stroke markers" d=" M 688 144 L 688 160" stroke-miterlimit="10" stroke-width="3" stroke-dasharray=""/><g transform="matrix(0,1,-1,0,688,112)"><path fill="none" stroke="url(#pUlgRBfmrqxC)" paint-order="fill stroke markers" d=" M 0 0 L 2 6 L 6 -6 L 10 6 L 14 -6 L 18 6 L 22 -6 L 26 6 L 30 -6 L 32 0" stroke-miterlimit="10" stroke-width="3" stroke-dasharray=""/></g><text fill="#ffffff" stroke="none" font-family="sans-serif" font-size="12px" font-style="normal" font-weight="normal" text-decoration="normal" x="698" y="134" text-anchor="start" dominant-baseline="alphabetic">150</text><path fill="none" stroke="#877878" paint-order="fill stroke markers" d=" M 688 208 L 688 256" stroke-miterlimit="10" stroke-width="3" stroke-dasharray=""/><path fill="#877878" stroke="none" paint-order="stroke fill markers" d=" M 688 237 L 695 223 L 681 223 Z"/><text fill="#ffffff" stroke="none" font-family="sans-serif" font-size="12px" font-style="normal" font-weight="normal" text-decoration="normal" x="694" y="238" text-anchor="start" dominant-baseline="alphabetic">20.959 mA</text><path fill="none" stroke="#877878" paint-order="fill stroke markers" d=" M 688 256 L 688 272" stroke-miterlimit="10" stroke-width="3" stroke-dasharray=""/><path fill="none" stroke="#877878" paint-order="fill stroke markers" d=" M 698 272 L 678 272" stroke-miterlimit="10" stroke-width="3" stroke-dasharray=""/><path fill="none" stroke="#877878" paint-order="fill stroke markers" d=" M 694 277 L 682 277" stroke-miterlimit="10" stroke-width="3" stroke-dasharray=""/><path fill="none" stroke="#877878" paint-order="fill stroke markers" d=" M 690 282 L 686 282" stroke-miterlimit="10" stroke-width="3" stroke-dasharray=""/><path fill="none" stroke="#08f708" paint-order="fill stroke markers" d=" M 656 80 L 625 80" stroke-miterlimit="10" stroke-width="3" stroke-dasharray=""/><g><text fill="#ffffff" stroke="none" font-family="sans-serif" font-size="12px" font-style="normal" font-weight="normal" text-decoration="normal" x="600" y="80" text-anchor="start" dominant-baseline="central">+5V</text></g><path fill="none" stroke="#20df20" paint-order="fill stroke markers" d=" M 384 80 L 320 80" stroke-miterlimit="10" stroke-width="3" stroke-dasharray=""/><path fill="#20df20" stroke="none" paint-order="stroke fill markers" d=" M 346 80 L 360 87 L 360 73 Z"/><text fill="#ffffff" stroke="none" font-family="sans-serif" font-size="12px" font-style="normal" font-weight="normal" text-decoration="normal" x="325" y="74" text-anchor="start" dominant-baseline="alphabetic">139.31 μA</text><path fill="none" stroke="#877878" paint-order="fill stroke markers" d=" M 240 80 L 256 80" stroke-miterlimit="10" stroke-width="3" stroke-dasharray=""/><path fill="none" stroke="#20df20" paint-order="fill stroke markers" d=" M 288 80 L 304 80" stroke-miterlimit="10" stroke-width="3" stroke-dasharray=""/><g transform="matrix(1,0,0,1,256,80)"><path fill="none" stroke="url(#ErXsgUrphJol)" paint-order="fill stroke markers" d=" M 0 0 L 2 6 L 6 -6 L 10 6 L 14 -6 L 18 6 L 22 -6 L 26 6 L 30 -6 L 32 0" stroke-miterlimit="10" stroke-width="3" stroke-dasharray=""/></g><text fill="#ffffff" stroke="none" font-family="sans-serif" font-size="12px" font-style="normal" font-weight="normal" text-decoration="normal" x="261" y="70" text-anchor="start" dominant-baseline="alphabetic">6.8k</text><path fill="none" stroke="#877878" paint-order="fill stroke markers" d=" M 240 80 L 208 80" stroke-miterlimit="10" stroke-width="3" stroke-dasharray=""/><path fill="none" stroke="#877878" paint-order="fill stroke markers" d=" M 176 96 L 144 96" stroke-miterlimit="10" stroke-width="3" stroke-dasharray=""/><path fill="none" stroke="#38c738" paint-order="fill stroke markers" d=" M 176 64 L 144 64" stroke-miterlimit="10" stroke-width="3" stroke-dasharray=""/><path fill="none" stroke="#ffffff" paint-order="fill stroke markers" d=" M 208 80 L 176 96" stroke-miterlimit="10" stroke-width="3" stroke-dasharray=""/><path fill="none" stroke="#38c738" paint-order="fill stroke markers" d=" M 64 48 L 49 48" stroke-miterlimit="10" stroke-width="3" stroke-dasharray=""/><g><text fill="#ffffff" stroke="none" font-family="sans-serif" font-size="12px" font-style="normal" font-weight="normal" text-decoration="normal" x="14" y="48" text-anchor="start" dominant-baseline="central">+3.3V</text></g><path fill="none" stroke="#877878" paint-order="fill stroke markers" d=" M 144 96 L 144 128" stroke-miterlimit="10" stroke-width="3" stroke-dasharray=""/><path fill="none" stroke="#877878" paint-order="fill stroke markers" d=" M 154 128 L 134 128" stroke-miterlimit="10" stroke-width="3" stroke-dasharray=""/><path fill="none" stroke="#877878" paint-order="fill stroke markers" d=" M 150 133 L 138 133" stroke-miterlimit="10" stroke-width="3" stroke-dasharray=""/><path fill="none" stroke="#877878" paint-order="fill stroke markers" d=" M 146 138 L 142 138" stroke-miterlimit="10" stroke-width="3" stroke-dasharray=""/><path fill="none" stroke="#08f708" paint-order="fill stroke markers" d=" M 416 -64 L 416 48" stroke-miterlimit="10" stroke-width="3" stroke-dasharray=""/><text fill="#ffffff" stroke="none" font-family="sans-serif" font-size="12px" font-style="normal" font-weight="normal" text-decoration="normal" x="422" y="-2" text-anchor="start" dominant-baseline="alphabetic"></text><path fill="none" stroke="#08f708" paint-order="fill stroke markers" d=" M 64 -64 L 49 -64" stroke-miterlimit="10" stroke-width="3" stroke-dasharray=""/><g><text fill="#ffffff" stroke="none" font-family="sans-serif" font-size="12px" font-style="normal" font-weight="normal" text-decoration="normal" x="24" y="-64" text-anchor="start" dominant-baseline="central">+5V</text></g><path fill="none" stroke="#08f708" paint-order="fill stroke markers" d=" M 304 -64 L 304 -48" stroke-miterlimit="10" stroke-width="3" stroke-dasharray=""/><path fill="none" stroke="#18e718" paint-order="fill stroke markers" d=" M 304 -16 L 304 0" stroke-miterlimit="10" stroke-width="3" stroke-dasharray=""/><g transform="matrix(0,1,-1,0,304,-48)"><path fill="none" stroke="url(#sJIKvTtSVldC)" paint-order="fill stroke markers" d=" M 0 0 L 2 6 L 6 -6 L 10 6 L 14 -6 L 18 6 L 22 -6 L 26 6 L 30 -6 L 32 0" stroke-miterlimit="10" stroke-width="3" stroke-dasharray=""/></g><text fill="#ffffff" stroke="none" font-family="sans-serif" font-size="12px" font-style="normal" font-weight="normal" text-decoration="normal" x="314" y="-26" text-anchor="start" dominant-baseline="alphabetic">1k</text><path fill="none" stroke="#38c738" paint-order="fill stroke markers" d=" M 64 48 L 80 48" stroke-miterlimit="10" stroke-width="3" stroke-dasharray=""/><path fill="none" stroke="#38c738" paint-order="fill stroke markers" d=" M 96 48 L 112 48" stroke-miterlimit="10" stroke-width="3" stroke-dasharray=""/><path fill="#38c738" stroke="none" paint-order="stroke fill markers" d=" M 80 40 L 80 56 L 96 48 Z"/><path fill="none" stroke="#38c738" paint-order="fill stroke markers" d=" M 96 40 L 96 56" stroke-miterlimit="10" stroke-width="3" stroke-dasharray=""/><path fill="none" stroke="#08f708" paint-order="fill stroke markers" d=" M 64 -64 L 304 -64" stroke-miterlimit="10" stroke-width="3" stroke-dasharray=""/><text fill="#ffffff" stroke="none" font-family="sans-serif" font-size="12px" font-style="normal" font-weight="normal" text-decoration="normal" x="184" y="-70" text-anchor="start" dominant-baseline="alphabetic"></text><path fill="none" stroke="#38c738" paint-order="fill stroke markers" d=" M 144 64 L 144 48" stroke-miterlimit="10" stroke-width="3" stroke-dasharray=""/><text fill="#ffffff" stroke="none" font-family="sans-serif" font-size="12px" font-style="normal" font-weight="normal" text-decoration="normal" x="150" y="62" text-anchor="start" dominant-baseline="alphabetic"></text><path fill="none" stroke="#38c738" paint-order="fill stroke markers" d=" M 144 48 L 112 48" stroke-miterlimit="10" stroke-width="3" stroke-dasharray=""/><text fill="#ffffff" stroke="none" font-family="sans-serif" font-size="12px" font-style="normal" font-weight="normal" text-decoration="normal" x="128" y="42" text-anchor="start" dominant-baseline="alphabetic"></text><path fill="none" stroke="#08f708" paint-order="fill stroke markers" d=" M 304 -64 L 416 -64" stroke-miterlimit="10" stroke-width="3" stroke-dasharray=""/><text fill="#ffffff" stroke="none" font-family="sans-serif" font-size="12px" font-style="normal" font-weight="normal" text-decoration="normal" x="360" y="-70" text-anchor="start" dominant-baseline="alphabetic"></text><path fill="none" stroke="#40bf40" paint-order="fill stroke markers" d=" M 144 272 L 112 272" stroke-miterlimit="10" stroke-width="3" stroke-dasharray=""/><text fill="#ffffff" stroke="none" font-family="sans-serif" font-size="12px" font-style="normal" font-weight="normal" text-decoration="normal" x="128" y="266" text-anchor="start" dominant-baseline="alphabetic"></text><path fill="none" stroke="#40bf40" paint-order="fill stroke markers" d=" M 144 288 L 144 272" stroke-miterlimit="10" stroke-width="3" stroke-dasharray=""/><text fill="#ffffff" stroke="none" font-family="sans-serif" font-size="12px" font-style="normal" font-weight="normal" text-decoration="normal" x="150" y="286" text-anchor="start" dominant-baseline="alphabetic"></text><path fill="none" stroke="#38c738" paint-order="fill stroke markers" d=" M 64 272 L 80 272" stroke-miterlimit="10" stroke-width="3" stroke-dasharray=""/><path fill="none" stroke="#40bf40" paint-order="fill stroke markers" d=" M 96 272 L 112 272" stroke-miterlimit="10" stroke-width="3" stroke-dasharray=""/><path fill="#38c738" stroke="none" paint-order="stroke fill markers" d=" M 80 264 L 80 280 L 96 272 Z"/><path fill="none" stroke="#40bf40" paint-order="fill stroke markers" d=" M 96 264 L 96 280" stroke-miterlimit="10" stroke-width="3" stroke-dasharray=""/><path fill="none" stroke="#38c738" paint-order="fill stroke markers" d=" M 64 272 L 49 272" stroke-miterlimit="10" stroke-width="3" stroke-dasharray=""/><g><text fill="#ffffff" stroke="none" font-family="sans-serif" font-size="12px" font-style="normal" font-weight="normal" text-decoration="normal" x="14" y="272" text-anchor="start" dominant-baseline="central">+3.3V</text></g><path fill="none" stroke="#20df20" paint-order="fill stroke markers" d=" M 320 80 L 304 80" stroke-miterlimit="10" stroke-width="3" stroke-dasharray=""/><text fill="#ffffff" stroke="none" font-family="sans-serif" font-size="12px" font-style="normal" font-weight="normal" text-decoration="normal" x="312" y="74" text-anchor="start" dominant-baseline="alphabetic"></text><path fill="none" stroke="#689768" paint-order="fill stroke markers" d=" M 320 304 L 304 304" stroke-miterlimit="10" stroke-width="3" stroke-dasharray=""/><text fill="#ffffff" stroke="none" font-family="sans-serif" font-size="12px" font-style="normal" font-weight="normal" text-decoration="normal" x="312" y="298" text-anchor="start" dominant-baseline="alphabetic"></text><path fill="none" stroke="#788778" paint-order="fill stroke markers" d=" M 416 288 L 403 298" stroke-miterlimit="10" stroke-width="3" stroke-dasharray=""/><path fill="none" stroke="#788778" paint-order="fill stroke markers" d=" M 416 293 L 403 303" stroke-miterlimit="10" stroke-width="3" stroke-dasharray=""/><path fill="none" stroke="#788778" paint-order="fill stroke markers" d=" M 416 288 L 416 293" stroke-miterlimit="10" stroke-width="3" stroke-dasharray=""/><path fill="none" stroke="#877878" paint-order="fill stroke markers" d=" M 416 320 L 403 310" stroke-miterlimit="10" stroke-width="3" stroke-dasharray=""/><path fill="#c0c0c0" stroke="none" paint-order="stroke fill markers" d=" M 416 320 L 412 312 L 407 318 Z"/><path fill="none" stroke="#689768" paint-order="fill stroke markers" d=" M 384 304 L 400 304" stroke-miterlimit="10" stroke-width="3" stroke-dasharray=""/><path fill="#689768" stroke="none" paint-order="stroke fill markers" d=" M 400 288 L 403 288 L 403 320 L 400 320 Z"/><path fill="none" stroke="#18e718" paint-order="fill stroke markers" d=" M 416 96 L 403 86" stroke-miterlimit="10" stroke-width="3" stroke-dasharray=""/><path fill="none" stroke="#08f708" paint-order="fill stroke markers" d=" M 416 64 L 403 74" stroke-miterlimit="10" stroke-width="3" stroke-dasharray=""/><path fill="#c0c0c0" stroke="none" paint-order="stroke fill markers" d=" M 405 75 L 413 72 L 408 66 Z"/><path fill="none" stroke="#20df20" paint-order="fill stroke markers" d=" M 384 80 L 400 80" stroke-miterlimit="10" stroke-width="3" stroke-dasharray=""/><path fill="#20df20" stroke="none" paint-order="stroke fill markers" d=" M 400 64 L 403 64 L 403 96 L 400 96 Z"/><path fill="none" stroke="#18e718" paint-order="fill stroke markers" d=" M 304 0 L 304 16" stroke-miterlimit="10" stroke-width="3" stroke-dasharray=""/><path fill="none" stroke="#20df20" paint-order="fill stroke markers" d=" M 304 48 L 304 64" stroke-miterlimit="10" stroke-width="3" stroke-dasharray=""/><path fill="none" stroke="#18e718" paint-order="fill stroke markers" d=" M 304 16 L 312 18" stroke-miterlimit="10" stroke-width="3" stroke-dasharray=""/><path fill="none" stroke="#18e718" paint-order="fill stroke markers" d=" M 312 18 L 304 20" stroke-miterlimit="10" stroke-width="3" stroke-dasharray=""/><path fill="none" stroke="#18e718" paint-order="fill stroke markers" d=" M 304 20 L 296 22" stroke-miterlimit="10" stroke-width="3" stroke-dasharray=""/><path fill="none" stroke="#18e718" paint-order="fill stroke markers" d=" M 296 22 L 304 24" stroke-miterlimit="10" stroke-width="3" stroke-dasharray=""/><path fill="none" stroke="#18e718" paint-order="fill stroke markers" d=" M 304 24 L 312 26" stroke-miterlimit="10" stroke-width="3" stroke-dasharray=""/><path fill="none" stroke="#18e718" paint-order="fill stroke markers" d=" M 312 26 L 304 28" stroke-miterlimit="10" stroke-width="3" stroke-dasharray=""/><path fill="none" stroke="#18e718" paint-order="fill stroke markers" d=" M 304 28 L 296 30" stroke-miterlimit="10" stroke-width="3" stroke-dasharray=""/><path fill="none" stroke="#18e718" paint-order="fill stroke markers" d=" M 296 30 L 304 32" stroke-miterlimit="10" stroke-width="3" stroke-dasharray=""/><path fill="none" stroke="#18e718" paint-order="fill stroke markers" d=" M 304 32 L 312 34" stroke-miterlimit="10" stroke-width="3" stroke-dasharray=""/><path fill="none" stroke="#18e718" paint-order="fill stroke markers" d=" M 312 34 L 304 36" stroke-miterlimit="10" stroke-width="3" stroke-dasharray=""/><path fill="none" stroke="#18e718" paint-order="fill stroke markers" d=" M 304 36 L 296 38" stroke-miterlimit="10" stroke-width="3" stroke-dasharray=""/><path fill="none" stroke="#18e718" paint-order="fill stroke markers" d=" M 296 38 L 304 40" stroke-miterlimit="10" stroke-width="3" stroke-dasharray=""/><path fill="none" stroke="#18e718" paint-order="fill stroke markers" d=" M 304 40 L 312 42" stroke-miterlimit="10" stroke-width="3" stroke-dasharray=""/><path fill="none" stroke="#18e718" paint-order="fill stroke markers" d=" M 312 42 L 304 44" stroke-miterlimit="10" stroke-width="3" stroke-dasharray=""/><path fill="none" stroke="#18e718" paint-order="fill stroke markers" d=" M 304 44 L 296 46" stroke-miterlimit="10" stroke-width="3" stroke-dasharray=""/><path fill="none" stroke="#18e718" paint-order="fill stroke markers" d=" M 296 46 L 304 48" stroke-miterlimit="10" stroke-width="3" stroke-dasharray=""/><path fill="none" stroke="#18e718" paint-order="fill stroke markers" d=" M 320 32 L 320 37" stroke-miterlimit="10" stroke-width="3" stroke-dasharray=""/><path fill="none" stroke="#18e718" paint-order="fill stroke markers" d=" M 320 37 L 312 37" stroke-miterlimit="10" stroke-width="3" stroke-dasharray=""/><path fill="none" stroke="#18e718" paint-order="fill stroke markers" d=" M 320 45 L 312 37" stroke-miterlimit="10" stroke-width="3" stroke-dasharray=""/><path fill="none" stroke="#18e718" paint-order="fill stroke markers" d=" M 320 29 L 312 37" stroke-miterlimit="10" stroke-width="3" stroke-dasharray=""/><text fill="#ffffff" stroke="none" font-family="sans-serif" font-size="12px" font-style="normal" font-weight="normal" text-decoration="normal" x="314" y="56" text-anchor="start" dominant-baseline="alphabetic">331.7</text><text fill="#ffffff" stroke="none" font-family="sans-serif" font-size="12px" font-style="normal" font-weight="normal" text-decoration="normal" x="314" y="26" text-anchor="start" dominant-baseline="alphabetic">668.3</text><path fill="none" stroke="#18e718" paint-order="fill stroke markers" d=" M 304 0 L 352 0" stroke-miterlimit="10" stroke-width="3" stroke-dasharray=""/><text fill="#ffffff" stroke="none" font-family="sans-serif" font-size="12px" font-style="normal" font-weight="normal" text-decoration="normal" x="328" y="-6" text-anchor="start" dominant-baseline="alphabetic"></text><path fill="none" stroke="#18e718" paint-order="fill stroke markers" d=" M 352 0 L 352 32" stroke-miterlimit="10" stroke-width="3" stroke-dasharray=""/><text fill="#ffffff" stroke="none" font-family="sans-serif" font-size="12px" font-style="normal" font-weight="normal" text-decoration="normal" x="358" y="22" text-anchor="start" dominant-baseline="alphabetic"></text><path fill="none" stroke="#18e718" paint-order="fill stroke markers" d=" M 352 32 L 320 32" stroke-miterlimit="10" stroke-width="3" stroke-dasharray=""/><text fill="#ffffff" stroke="none" font-family="sans-serif" font-size="12px" font-style="normal" font-weight="normal" text-decoration="normal" x="336" y="26" text-anchor="start" dominant-baseline="alphabetic"></text><path fill="none" stroke="#20df20" paint-order="fill stroke markers" d=" M 304 80 L 304 64" stroke-miterlimit="10" stroke-width="3" stroke-dasharray=""/><text fill="#ffffff" stroke="none" font-family="sans-serif" font-size="12px" font-style="normal" font-weight="normal" text-decoration="normal" x="310" y="78" text-anchor="start" dominant-baseline="alphabetic"></text><path fill="#ffffff" stroke="none" paint-order="stroke fill markers" d=" M 307 -64 A 3 3 0 1 1 306.99999999995777 -64.00001592153876 Z"/><path fill="#ffffff" stroke="none" paint-order="stroke fill markers" d=" M 307 0 A 3 3 0 1 1 306.99999999995777 -0.000015921538760060326 Z"/><path fill="#ffffff" stroke="none" paint-order="stroke fill markers" d=" M 307 80 A 3 3 0 1 1 306.99999999995777 79.99998407846124 Z"/><path fill="#ffffff" stroke="none" paint-order="stroke fill markers" d=" M 419 160 A 3 3 0 1 1 418.99999999995777 159.99998407846124 Z"/><path fill="#ffffff" stroke="none" paint-order="stroke fill markers" d=" M 419 208 A 3 3 0 1 1 418.99999999995777 207.99998407846124 Z"/><path fill="#ffffff" stroke="none" paint-order="stroke fill markers" d=" M 419 272 A 3 3 0 1 1 418.99999999995777 271.99998407846124 Z"/><path fill="#ffffff" stroke="none" paint-order="stroke fill markers" d=" M 419 336 A 3 3 0 1 1 418.99999999995777 335.99998407846124 Z"/><path fill="#ffffff" stroke="none" paint-order="stroke fill markers" d=" M 691 160 A 3 3 0 1 1 690.9999999999577 159.99998407846124 Z"/><path fill="#ffffff" stroke="none" paint-order="stroke fill markers" d=" M 691 208 A 3 3 0 1 1 690.9999999999577 207.99998407846124 Z"/></g></g></svg>