<svg version="1.1" xmlns="http://www.w3.org/2000/svg" xmlns:xlink="http://www.w3.org/1999/xlink" width="844" height="500"><defs><linearGradient id="TAkolkvliZKk" x1="0px" x2="32px" y1="0px" y2="0px" gradientUnits="userSpaceOnUse"><stop offset="0" stop-color="#38c738"/><stop offset="1" stop-color="#788778"/></linearGradient><linearGradient id="gxMCWkFMsJhN" x1="0px" x2="32px" y1="0px" y2="0px" gradientUnits="userSpaceOnUse"><stop offset="0" stop-color="#20df20"/><stop offset="1" stop-color="#58a758"/></linearGradient><linearGradient id="NzxnQMcFnoZT" x1="0px" x2="32px" y1="0px" y2="0px" gradientUnits="userSpaceOnUse"><stop offset="0" stop-color="#08f708"/><stop offset="1" stop-color="#58a758"/></linearGradient><linearGradient id="TMMTEIFEvgTF" x1="0px" x2="32px" y1="0px" y2="0px" gradientUnits="userSpaceOnUse"><stop offset="0" stop-color="#808080"/><stop offset="1" stop-color="#28d728"/></linearGradient><linearGradient id="pGInqzFgDiEP" x1="0px" x2="32px" y1="0px" y2="0px" gradientUnits="userSpaceOnUse"><stop offset="0" stop-color="#08f708"/><stop offset="1" stop-color="#28d728"/></linearGradient></defs><g><rect fill="#000000" stroke="none" x="0" y="0" width="1516" height="669"/><g transform="scale(1,1) translate(54,34)"><path fill="none" stroke="#877878" paint-order="fill stroke markers" d=" M 128 320 L 128 352" stroke-miterlimit="10" stroke-width="3" stroke-dasharray=""/><path fill="none" stroke="#877878" paint-order="fill stroke markers" d=" M 138 352 L 118 352" stroke-miterlimit="10" stroke-width="3" stroke-dasharray=""/><path fill="none" stroke="#877878" paint-order="fill stroke markers" d=" M 134 357 L 122 357" stroke-miterlimit="10" stroke-width="3" stroke-dasharray=""/><path fill="none" stroke="#877878" paint-order="fill stroke markers" d=" M 130 362 L 126 362" stroke-miterlimit="10" stroke-width="3" stroke-dasharray=""/><path fill="none" stroke="#38c738" paint-order="fill stroke markers" d=" M 128 240 L 97 240" stroke-miterlimit="10" stroke-width="3" stroke-dasharray=""/><g><text fill="#ffffff" stroke="none" font-family="sans-serif" font-size="10px" font-style="normal" font-weight="normal" text-decoration="normal" x="67" y="240" text-anchor="start" dominant-baseline="central">+3.3V</text></g><path fill="none" stroke="#38c738" paint-order="fill stroke markers" d=" M 224 304 L 192 304" stroke-miterlimit="10" stroke-width="3" stroke-dasharray=""/><path fill="none" stroke="#877878" paint-order="fill stroke markers" d=" M 160 320 L 128 320" stroke-miterlimit="10" stroke-width="3" stroke-dasharray=""/><path fill="none" stroke="#38c738" paint-order="fill stroke markers" d=" M 160 288 L 128 288" stroke-miterlimit="10" stroke-width="3" stroke-dasharray=""/><path fill="none" stroke="#ffffff" paint-order="fill stroke markers" d=" M 192 304 L 160 288" stroke-miterlimit="10" stroke-width="3" stroke-dasharray=""/><path fill="none" stroke="#877878" paint-order="fill stroke markers" d=" M 416 400 L 416 416" stroke-miterlimit="10" stroke-width="3" stroke-dasharray=""/><path fill="none" stroke="#877878" paint-order="fill stroke markers" d=" M 426 416 L 406 416" stroke-miterlimit="10" stroke-width="3" stroke-dasharray=""/><path fill="none" stroke="#877878" paint-order="fill stroke markers" d=" M 422 421 L 410 421" stroke-miterlimit="10" stroke-width="3" stroke-dasharray=""/><path fill="none" stroke="#877878" paint-order="fill stroke markers" d=" M 418 426 L 414 426" stroke-miterlimit="10" stroke-width="3" stroke-dasharray=""/><path fill="none" stroke="#38c738" paint-order="fill stroke markers" d=" M 128 240 L 128 288" stroke-miterlimit="10" stroke-width="3" stroke-dasharray=""/><text fill="#ffffff" stroke="none" font-family="sans-serif" font-size="12px" font-style="normal" font-weight="normal" text-decoration="normal" x="134" y="270" text-anchor="start" dominant-baseline="alphabetic"></text><path fill="none" stroke="#38c738" paint-order="fill stroke markers" d=" M 224 304 L 256 304" stroke-miterlimit="10" stroke-width="3" stroke-dasharray=""/><text fill="#ffffff" stroke="none" font-family="sans-serif" font-size="12px" font-style="normal" font-weight="normal" text-decoration="normal" x="240" y="298" text-anchor="start" dominant-baseline="alphabetic"></text><path fill="none" stroke="#38c738" paint-order="fill stroke markers" d=" M 256 304 L 272 304" stroke-miterlimit="10" stroke-width="3" stroke-dasharray=""/><path fill="none" stroke="#788778" paint-order="fill stroke markers" d=" M 304 304 L 320 304" stroke-miterlimit="10" stroke-width="3" stroke-dasharray=""/><g transform="matrix(1,0,0,1,272,304)"><path fill="none" stroke="url(#TAkolkvliZKk)" paint-order="fill stroke markers" d=" M 0 0 L 2 6 L 6 -6 L 10 6 L 14 -6 L 18 6 L 22 -6 L 26 6 L 30 -6 L 32 0" stroke-miterlimit="10" stroke-width="3" stroke-dasharray=""/></g><text fill="#ffffff" stroke="none" font-family="sans-serif" font-size="12px" font-style="normal" font-weight="normal" text-decoration="normal" x="277" y="294" text-anchor="start" dominant-baseline="alphabetic">6.8k</text><path fill="none" stroke="#788778" paint-order="fill stroke markers" d=" M 320 304 L 384 304" stroke-miterlimit="10" stroke-width="3" stroke-dasharray=""/><path fill="#788778" stroke="none" paint-order="stroke fill markers" d=" M 358 304 L 344 297 L 344 311 Z"/><text fill="#ffffff" stroke="none" font-family="sans-serif" font-size="12px" font-style="normal" font-weight="normal" text-decoration="normal" x="322" y="298" text-anchor="start" dominant-baseline="alphabetic">387.096 μA</text><path fill="none" stroke="#877878" paint-order="fill stroke markers" d=" M 416 288 L 403 298" stroke-miterlimit="10" stroke-width="3" stroke-dasharray=""/><path fill="none" stroke="#877878" paint-order="fill stroke markers" d=" M 416 320 L 403 310" stroke-miterlimit="10" stroke-width="3" stroke-dasharray=""/><path fill="#c0c0c0" stroke="none" paint-order="stroke fill markers" d=" M 416 320 L 412 312 L 407 318 Z"/><path fill="none" stroke="#788778" paint-order="fill stroke markers" d=" M 384 304 L 400 304" stroke-miterlimit="10" stroke-width="3" stroke-dasharray=""/><path fill="#788778" stroke="none" paint-order="stroke fill markers" d=" M 400 288 L 403 288 L 403 320 L 400 320 Z"/><path fill="none" stroke="#877878" paint-order="fill stroke markers" d=" M 416 320 L 416 336" stroke-miterlimit="10" stroke-width="3" stroke-dasharray=""/><text fill="#ffffff" stroke="none" font-family="sans-serif" font-size="12px" font-style="normal" font-weight="normal" text-decoration="normal" x="422" y="334" text-anchor="start" dominant-baseline="alphabetic"></text><path fill="none" stroke="#877878" paint-order="fill stroke markers" d=" M 416 208 L 416 256" stroke-miterlimit="10" stroke-width="3" stroke-dasharray=""/><path fill="#877878" stroke="none" paint-order="stroke fill markers" d=" M 416 237 L 423 223 L 409 223 Z"/><text fill="#ffffff" stroke="none" font-family="sans-serif" font-size="12px" font-style="normal" font-weight="normal" text-decoration="normal" x="422" y="238" text-anchor="start" dominant-baseline="alphabetic">15.847 mA</text><path fill="none" stroke="#20df20" paint-order="fill stroke markers" d=" M 416 96 L 416 112" stroke-miterlimit="10" stroke-width="3" stroke-dasharray=""/><path fill="none" stroke="#58a758" paint-order="fill stroke markers" d=" M 416 144 L 416 160" stroke-miterlimit="10" stroke-width="3" stroke-dasharray=""/><g transform="matrix(0,1,-1,0,416,112)"><path fill="none" stroke="url(#gxMCWkFMsJhN)" paint-order="fill stroke markers" d=" M 0 0 L 2 6 L 6 -6 L 10 6 L 14 -6 L 18 6 L 22 -6 L 26 6 L 30 -6 L 32 0" stroke-miterlimit="10" stroke-width="3" stroke-dasharray=""/></g><text fill="#ffffff" stroke="none" font-family="sans-serif" font-size="12px" font-style="normal" font-weight="normal" text-decoration="normal" x="426" y="134" text-anchor="start" dominant-baseline="alphabetic">150</text><path fill="none" stroke="#877878" paint-order="fill stroke markers" d=" M 416 336 L 416 400" stroke-miterlimit="10" stroke-width="3" stroke-dasharray=""/><path fill="#877878" stroke="none" paint-order="stroke fill markers" d=" M 416 374 L 423 360 L 409 360 Z"/><text fill="#ffffff" stroke="none" font-family="sans-serif" font-size="12px" font-style="normal" font-weight="normal" text-decoration="normal" x="422" y="374" text-anchor="start" dominant-baseline="alphabetic">16.234 mA</text><path fill="none" stroke="#58a758" paint-order="fill stroke markers" d=" M 416 160 L 416 172" stroke-miterlimit="10" stroke-width="3" stroke-dasharray=""/><path fill="none" stroke="#877878" paint-order="fill stroke markers" d=" M 416 196 L 416 208" stroke-miterlimit="10" stroke-width="3" stroke-dasharray=""/><path fill="none" stroke="#808080" paint-order="fill stroke markers" d=" M 427.76 184 A 11.76 11.76 0 1 1 427.7599941200005 183.98824000195998" stroke-miterlimit="10" stroke-width="3" stroke-dasharray=""/><path fill="#ff0000" stroke="none" paint-order="stroke fill markers" d=" M 424 184 A 8 8 0 1 1 423.99999999988734 183.9999575425633 Z"/><path fill="none" stroke="#08f708" paint-order="fill stroke markers" d=" M 416 48 L 416 64" stroke-miterlimit="10" stroke-width="3" stroke-dasharray=""/><text fill="#ffffff" stroke="none" font-family="sans-serif" font-size="12px" font-style="normal" font-weight="normal" text-decoration="normal" x="422" y="62" text-anchor="start" dominant-baseline="alphabetic"></text><g><path fill="none" stroke="#877878" paint-order="fill stroke markers" d=" M 448 272 L 448 296" stroke-miterlimit="10" stroke-width="3" stroke-dasharray=""/><path fill="none" stroke="#877878" paint-order="fill stroke markers" d=" M 448 312 L 448 336" stroke-miterlimit="10" stroke-width="3" stroke-dasharray=""/><text fill="#ffffff" stroke="none" font-family="sans-serif" font-size="12px" font-style="normal" font-weight="normal" text-decoration="normal" x="454" y="310" text-anchor="start" dominant-baseline="alphabetic">110.866 mV</text><text fill="#ffffff" stroke="none" font-family="sans-serif" font-size="12px" font-style="normal" font-weight="normal" text-decoration="normal" x="435" y="296" text-anchor="start" dominant-baseline="alphabetic">+</text></g><path fill="none" stroke="#877878" paint-order="fill stroke markers" d=" M 448 336 L 416 336" stroke-miterlimit="10" stroke-width="3" stroke-dasharray=""/><text fill="#ffffff" stroke="none" font-family="sans-serif" font-size="12px" font-style="normal" font-weight="normal" text-decoration="normal" x="432" y="330" text-anchor="start" dominant-baseline="alphabetic"></text><path fill="none" stroke="#877878" paint-order="fill stroke markers" d=" M 448 272 L 416 272" stroke-miterlimit="10" stroke-width="3" stroke-dasharray=""/><text fill="#ffffff" stroke="none" font-family="sans-serif" font-size="12px" font-style="normal" font-weight="normal" text-decoration="normal" x="432" y="266" text-anchor="start" dominant-baseline="alphabetic"></text><path fill="none" stroke="#877878" paint-order="fill stroke markers" d=" M 416 256 L 416 272" stroke-miterlimit="10" stroke-width="3" stroke-dasharray=""/><text fill="#ffffff" stroke="none" font-family="sans-serif" font-size="12px" font-style="normal" font-weight="normal" text-decoration="normal" x="422" y="270" text-anchor="start" dominant-baseline="alphabetic"></text><path fill="none" stroke="#877878" paint-order="fill stroke markers" d=" M 416 272 L 416 288" stroke-miterlimit="10" stroke-width="3" stroke-dasharray=""/><text fill="#ffffff" stroke="none" font-family="sans-serif" font-size="12px" font-style="normal" font-weight="normal" text-decoration="normal" x="422" y="286" text-anchor="start" dominant-baseline="alphabetic"></text><g><path fill="none" stroke="#58a758" paint-order="fill stroke markers" d=" M 448 160 L 448 176" stroke-miterlimit="10" stroke-width="3" stroke-dasharray=""/><path fill="none" stroke="#877878" paint-order="fill stroke markers" d=" M 448 192 L 448 208" stroke-miterlimit="10" stroke-width="3" stroke-dasharray=""/><text fill="#ffffff" stroke="none" font-family="sans-serif" font-size="12px" font-style="normal" font-weight="normal" text-decoration="normal" x="454" y="190" text-anchor="start" dominant-baseline="alphabetic">1.829 V</text><text fill="#ffffff" stroke="none" font-family="sans-serif" font-size="12px" font-style="normal" font-weight="normal" text-decoration="normal" x="435" y="176" text-anchor="start" dominant-baseline="alphabetic">+</text></g><path fill="none" stroke="#58a758" paint-order="fill stroke markers" d=" M 448 160 L 416 160" stroke-miterlimit="10" stroke-width="3" stroke-dasharray=""/><text fill="#ffffff" stroke="none" font-family="sans-serif" font-size="12px" font-style="normal" font-weight="normal" text-decoration="normal" x="432" y="154" text-anchor="start" dominant-baseline="alphabetic"></text><path fill="none" stroke="#877878" paint-order="fill stroke markers" d=" M 448 208 L 416 208" stroke-miterlimit="10" stroke-width="3" stroke-dasharray=""/><text fill="#ffffff" stroke="none" font-family="sans-serif" font-size="12px" font-style="normal" font-weight="normal" text-decoration="normal" x="432" y="202" text-anchor="start" dominant-baseline="alphabetic"></text><path fill="none" stroke="#877878" paint-order="fill stroke markers" d=" M 720 208 L 688 208" stroke-miterlimit="10" stroke-width="3" stroke-dasharray=""/><text fill="#ffffff" stroke="none" font-family="sans-serif" font-size="12px" font-style="normal" font-weight="normal" text-decoration="normal" x="704" y="202" text-anchor="start" dominant-baseline="alphabetic"></text><path fill="none" stroke="#58a758" paint-order="fill stroke markers" d=" M 720 160 L 688 160" stroke-miterlimit="10" stroke-width="3" stroke-dasharray=""/><text fill="#ffffff" stroke="none" font-family="sans-serif" font-size="12px" font-style="normal" font-weight="normal" text-decoration="normal" x="704" y="154" text-anchor="start" dominant-baseline="alphabetic"></text><g><path fill="none" stroke="#58a758" paint-order="fill stroke markers" d=" M 720 160 L 720 176" stroke-miterlimit="10" stroke-width="3" stroke-dasharray=""/><path fill="none" stroke="#877878" paint-order="fill stroke markers" d=" M 720 192 L 720 208" stroke-miterlimit="10" stroke-width="3" stroke-dasharray=""/><text fill="#ffffff" stroke="none" font-family="sans-serif" font-size="12px" font-style="normal" font-weight="normal" text-decoration="normal" x="726" y="190" text-anchor="start" dominant-baseline="alphabetic">1.856 V</text><text fill="#ffffff" stroke="none" font-family="sans-serif" font-size="12px" font-style="normal" font-weight="normal" text-decoration="normal" x="707" y="176" text-anchor="start" dominant-baseline="alphabetic">+</text></g><path fill="none" stroke="#08f708" paint-order="fill stroke markers" d=" M 688 80 L 688 96" stroke-miterlimit="10" stroke-width="3" stroke-dasharray=""/><text fill="#ffffff" stroke="none" font-family="sans-serif" font-size="12px" font-style="normal" font-weight="normal" text-decoration="normal" x="694" y="94" text-anchor="start" dominant-baseline="alphabetic"></text><path fill="none" stroke="#08f708" paint-order="fill stroke markers" d=" M 656 80 L 688 80" stroke-miterlimit="10" stroke-width="3" stroke-dasharray=""/><text fill="#ffffff" stroke="none" font-family="sans-serif" font-size="12px" font-style="normal" font-weight="normal" text-decoration="normal" x="672" y="74" text-anchor="start" dominant-baseline="alphabetic"></text><path fill="none" stroke="#58a758" paint-order="fill stroke markers" d=" M 688 160 L 688 172" stroke-miterlimit="10" stroke-width="3" stroke-dasharray=""/><path fill="none" stroke="#877878" paint-order="fill stroke markers" d=" M 688 196 L 688 208" stroke-miterlimit="10" stroke-width="3" stroke-dasharray=""/><path fill="none" stroke="#808080" paint-order="fill stroke markers" d=" M 699.76 184 A 11.76 11.76 0 1 1 699.7599941200004 183.98824000195998" stroke-miterlimit="10" stroke-width="3" stroke-dasharray=""/><path fill="#ff0000" stroke="none" paint-order="stroke fill markers" d=" M 696 184 A 8 8 0 1 1 695.9999999998873 183.9999575425633 Z"/><path fill="none" stroke="#08f708" paint-order="fill stroke markers" d=" M 688 96 L 688 112" stroke-miterlimit="10" stroke-width="3" stroke-dasharray=""/><path fill="none" stroke="#58a758" paint-order="fill stroke markers" d=" M 688 144 L 688 160" stroke-miterlimit="10" stroke-width="3" stroke-dasharray=""/><g transform="matrix(0,1,-1,0,688,112)"><path fill="none" stroke="url(#NzxnQMcFnoZT)" paint-order="fill stroke markers" d=" M 0 0 L 2 6 L 6 -6 L 10 6 L 14 -6 L 18 6 L 22 -6 L 26 6 L 30 -6 L 32 0" stroke-miterlimit="10" stroke-width="3" stroke-dasharray=""/></g><text fill="#ffffff" stroke="none" font-family="sans-serif" font-size="12px" font-style="normal" font-weight="normal" text-decoration="normal" x="698" y="134" text-anchor="start" dominant-baseline="alphabetic">150</text><path fill="none" stroke="#877878" paint-order="fill stroke markers" d=" M 688 208 L 688 256" stroke-miterlimit="10" stroke-width="3" stroke-dasharray=""/><path fill="#877878" stroke="none" paint-order="stroke fill markers" d=" M 688 237 L 695 223 L 681 223 Z"/><text fill="#ffffff" stroke="none" font-family="sans-serif" font-size="12px" font-style="normal" font-weight="normal" text-decoration="normal" x="694" y="238" text-anchor="start" dominant-baseline="alphabetic">20.959 mA</text><path fill="none" stroke="#877878" paint-order="fill stroke markers" d=" M 688 256 L 688 272" stroke-miterlimit="10" stroke-width="3" stroke-dasharray=""/><path fill="none" stroke="#877878" paint-order="fill stroke markers" d=" M 698 272 L 678 272" stroke-miterlimit="10" stroke-width="3" stroke-dasharray=""/><path fill="none" stroke="#877878" paint-order="fill stroke markers" d=" M 694 277 L 682 277" stroke-miterlimit="10" stroke-width="3" stroke-dasharray=""/><path fill="none" stroke="#877878" paint-order="fill stroke markers" d=" M 690 282 L 686 282" stroke-miterlimit="10" stroke-width="3" stroke-dasharray=""/><path fill="none" stroke="#08f708" paint-order="fill stroke markers" d=" M 656 80 L 625 80" stroke-miterlimit="10" stroke-width="3" stroke-dasharray=""/><g><text fill="#ffffff" stroke="none" font-family="sans-serif" font-size="12px" font-style="normal" font-weight="normal" text-decoration="normal" x="600" y="80" text-anchor="start" dominant-baseline="central">+5V</text></g><path fill="none" stroke="#20df20" paint-order="fill stroke markers" d=" M 416 96 L 403 86" stroke-miterlimit="10" stroke-width="3" stroke-dasharray=""/><path fill="none" stroke="#20df20" paint-order="fill stroke markers" d=" M 416 91 L 403 81" stroke-miterlimit="10" stroke-width="3" stroke-dasharray=""/><path fill="none" stroke="#20df20" paint-order="fill stroke markers" d=" M 416 96 L 416 91" stroke-miterlimit="10" stroke-width="3" stroke-dasharray=""/><path fill="none" stroke="#08f708" paint-order="fill stroke markers" d=" M 416 64 L 403 74" stroke-miterlimit="10" stroke-width="3" stroke-dasharray=""/><path fill="#c0c0c0" stroke="none" paint-order="stroke fill markers" d=" M 405 75 L 413 72 L 408 66 Z"/><path fill="none" stroke="#28d728" paint-order="fill stroke markers" d=" M 384 80 L 400 80" stroke-miterlimit="10" stroke-width="3" stroke-dasharray=""/><path fill="#28d728" stroke="none" paint-order="stroke fill markers" d=" M 400 64 L 403 64 L 403 96 L 400 96 Z"/><path fill="none" stroke="#28d728" paint-order="fill stroke markers" d=" M 384 80 L 336 80" stroke-miterlimit="10" stroke-width="3" stroke-dasharray=""/><path fill="#28d728" stroke="none" paint-order="stroke fill markers" d=" M 355 80 L 369 87 L 369 73 Z"/><text fill="#ffffff" stroke="none" font-family="sans-serif" font-size="12px" font-style="normal" font-weight="normal" text-decoration="normal" x="330" y="74" text-anchor="start" dominant-baseline="alphabetic">184.548 μA</text><path fill="none" stroke="#808080" paint-order="fill stroke markers" d=" M 208 80 L 224 80" stroke-miterlimit="10" stroke-width="3" stroke-dasharray=""/><path fill="none" stroke="#28d728" paint-order="fill stroke markers" d=" M 256 80 L 272 80" stroke-miterlimit="10" stroke-width="3" stroke-dasharray=""/><g transform="matrix(1,0,0,1,224,80)"><path fill="none" stroke="url(#TMMTEIFEvgTF)" paint-order="fill stroke markers" d=" M 0 0 L 2 6 L 6 -6 L 10 6 L 14 -6 L 18 6 L 22 -6 L 26 6 L 30 -6 L 32 0" stroke-miterlimit="10" stroke-width="3" stroke-dasharray=""/></g><text fill="#ffffff" stroke="none" font-family="sans-serif" font-size="12px" font-style="normal" font-weight="normal" text-decoration="normal" x="229" y="70" text-anchor="start" dominant-baseline="alphabetic">6.8k</text><path fill="none" stroke="#28d728" paint-order="fill stroke markers" d=" M 272 80 L 336 80" stroke-miterlimit="10" stroke-width="3" stroke-dasharray=""/><text fill="#ffffff" stroke="none" font-family="sans-serif" font-size="12px" font-style="normal" font-weight="normal" text-decoration="normal" x="304" y="74" text-anchor="start" dominant-baseline="alphabetic"></text><path fill="none" stroke="#877878" paint-order="fill stroke markers" d=" M 160 80 L 128 80" stroke-miterlimit="10" stroke-width="3" stroke-dasharray=""/><path fill="none" stroke="#877878" paint-order="fill stroke markers" d=" M 96 96 L 64 96" stroke-miterlimit="10" stroke-width="3" stroke-dasharray=""/><path fill="none" stroke="#38c738" paint-order="fill stroke markers" d=" M 96 64 L 64 64" stroke-miterlimit="10" stroke-width="3" stroke-dasharray=""/><path fill="none" stroke="#ffffff" paint-order="fill stroke markers" d=" M 128 80 L 96 96" stroke-miterlimit="10" stroke-width="3" stroke-dasharray=""/><path fill="none" stroke="#38c738" paint-order="fill stroke markers" d=" M 64 64 L 33 64" stroke-miterlimit="10" stroke-width="3" stroke-dasharray=""/><g><text fill="#ffffff" stroke="none" font-family="sans-serif" font-size="12px" font-style="normal" font-weight="normal" text-decoration="normal" x="-2" y="64" text-anchor="start" dominant-baseline="central">+3.3V</text></g><path fill="none" stroke="#877878" paint-order="fill stroke markers" d=" M 64 96 L 64 128" stroke-miterlimit="10" stroke-width="3" stroke-dasharray=""/><path fill="none" stroke="#877878" paint-order="fill stroke markers" d=" M 74 128 L 54 128" stroke-miterlimit="10" stroke-width="3" stroke-dasharray=""/><path fill="none" stroke="#877878" paint-order="fill stroke markers" d=" M 70 133 L 58 133" stroke-miterlimit="10" stroke-width="3" stroke-dasharray=""/><path fill="none" stroke="#877878" paint-order="fill stroke markers" d=" M 66 138 L 62 138" stroke-miterlimit="10" stroke-width="3" stroke-dasharray=""/><path fill="none" stroke="#08f708" paint-order="fill stroke markers" d=" M 416 16 L 416 48" stroke-miterlimit="10" stroke-width="3" stroke-dasharray=""/><text fill="#ffffff" stroke="none" font-family="sans-serif" font-size="12px" font-style="normal" font-weight="normal" text-decoration="normal" x="422" y="38" text-anchor="start" dominant-baseline="alphabetic"></text><path fill="none" stroke="#08f708" paint-order="fill stroke markers" d=" M 272 16 L 209 16" stroke-miterlimit="10" stroke-width="3" stroke-dasharray=""/><g><text fill="#ffffff" stroke="none" font-family="sans-serif" font-size="12px" font-style="normal" font-weight="normal" text-decoration="normal" x="184" y="16" text-anchor="start" dominant-baseline="central">+5V</text></g><path fill="none" stroke="#08f708" paint-order="fill stroke markers" d=" M 272 16 L 272 32" stroke-miterlimit="10" stroke-width="3" stroke-dasharray=""/><path fill="none" stroke="#28d728" paint-order="fill stroke markers" d=" M 272 64 L 272 80" stroke-miterlimit="10" stroke-width="3" stroke-dasharray=""/><g transform="matrix(0,1,-1,0,272,32)"><path fill="none" stroke="url(#pGInqzFgDiEP)" paint-order="fill stroke markers" d=" M 0 0 L 2 6 L 6 -6 L 10 6 L 14 -6 L 18 6 L 22 -6 L 26 6 L 30 -6 L 32 0" stroke-miterlimit="10" stroke-width="3" stroke-dasharray=""/></g><text fill="#ffffff" stroke="none" font-family="sans-serif" font-size="12px" font-style="normal" font-weight="normal" text-decoration="normal" x="282" y="54" text-anchor="start" dominant-baseline="alphabetic">4k</text><path fill="none" stroke="#08f708" paint-order="fill stroke markers" d=" M 272 16 L 416 16" stroke-miterlimit="10" stroke-width="3" stroke-dasharray=""/><text fill="#ffffff" stroke="none" font-family="sans-serif" font-size="12px" font-style="normal" font-weight="normal" text-decoration="normal" x="344" y="10" text-anchor="start" dominant-baseline="alphabetic"></text><path fill="none" stroke="#808080" paint-order="fill stroke markers" d=" M 208 80 L 192 80" stroke-miterlimit="10" stroke-width="3" stroke-dasharray=""/><path fill="none" stroke="#877878" paint-order="fill stroke markers" d=" M 176 80 L 160 80" stroke-miterlimit="10" stroke-width="3" stroke-dasharray=""/><path fill="#808080" stroke="none" paint-order="stroke fill markers" d=" M 192 88 L 192 72 L 176 80 Z"/><path fill="none" stroke="#877878" paint-order="fill stroke markers" d=" M 176 88 L 176 72" stroke-miterlimit="10" stroke-width="3" stroke-dasharray=""/><path fill="#ffffff" stroke="none" paint-order="stroke fill markers" d=" M 275 16 A 3 3 0 1 1 274.99999999995777 15.99998407846124 Z"/><path fill="#ffffff" stroke="none" paint-order="stroke fill markers" d=" M 275 80 A 3 3 0 1 1 274.99999999995777 79.99998407846124 Z"/><path fill="#ffffff" stroke="none" paint-order="stroke fill markers" d=" M 419 160 A 3 3 0 1 1 418.99999999995777 159.99998407846124 Z"/><path fill="#ffffff" stroke="none" paint-order="stroke fill markers" d=" M 419 208 A 3 3 0 1 1 418.99999999995777 207.99998407846124 Z"/><path fill="#ffffff" stroke="none" paint-order="stroke fill markers" d=" M 419 272 A 3 3 0 1 1 418.99999999995777 271.99998407846124 Z"/><path fill="#ffffff" stroke="none" paint-order="stroke fill markers" d=" M 419 336 A 3 3 0 1 1 418.99999999995777 335.99998407846124 Z"/><path fill="#ffffff" stroke="none" paint-order="stroke fill markers" d=" M 691 160 A 3 3 0 1 1 690.9999999999577 159.99998407846124 Z"/><path fill="#ffffff" stroke="none" paint-order="stroke fill markers" d=" M 691 208 A 3 3 0 1 1 690.9999999999577 207.99998407846124 Z"/></g></g></svg>